<svg width="110" height="109" viewBox="0 0 110 109" fill="none" xmlns="http://www.w3.org/2000/svg">
<g clip-path="url(#clip0_2603_742)">
<path d="M69.895 65.608C69.8148 65.6176 69.7023 65.6724 69.5589 65.771C69.0625 66.1092 68.4775 66.2777 67.8053 66.2777C67.3638 66.2777 66.7914 65.9901 66.0855 65.4163L65.3557 64.8137L65.1743 64.6631L64.0563 63.7236C63.7343 63.4771 63.1704 63.0923 62.3618 62.5691C62.9144 62.4308 63.4305 62.2541 63.9115 62.0391L51.4297 62.0405C51.6139 62.2473 51.8248 62.3514 52.0667 62.3514C52.1947 62.3514 52.3789 62.3404 52.618 62.3199C52.8331 62.2993 53.1819 62.2884 53.6614 62.2884C54.1001 62.2884 54.4081 62.2966 54.5909 62.3144L54.5572 62.3815C54.1817 63.1429 53.9778 63.9167 53.9454 64.7C53.944 64.7397 53.9426 64.7795 53.9454 64.8137C53.9567 65.0629 54.0551 65.1862 54.2422 65.1862C54.3631 65.1862 54.4517 65.0643 54.5065 64.8137C54.5164 64.7603 54.5276 64.7028 54.5375 64.637C54.6261 63.9249 54.8736 63.3182 55.2814 62.8197C55.6892 62.3212 56.1392 62.0706 56.6257 62.0706C57.1868 62.0706 58.0685 62.4719 59.2681 63.2744L61.286 64.6302C61.3394 64.6672 61.4252 64.7274 61.5434 64.8137C61.8823 65.0575 62.4841 65.4984 63.3518 66.1394C64.6554 67.1049 65.7888 67.5869 66.7507 67.5869C67.4636 67.5869 68.2047 67.387 68.9781 66.9843C69.7487 66.5831 70.1284 66.1983 70.1116 65.8312C70.1031 65.6724 70.0328 65.597 69.895 65.608Z" fill="black"/>
<path d="M83.1141 61.6654C82.3533 61.4929 81.8499 61.2573 81.601 60.9574C81.3535 60.6589 81.0399 59.8947 80.6658 58.6676L80.4 57.8446L78.6929 52.3296L75.2195 41.0985C75.1309 40.8054 75.0254 40.6575 74.8974 40.6575C74.7709 40.6575 74.6556 40.8095 74.5529 41.1149L70.5592 52.3296H71.5618C71.5745 52.2269 71.6251 52.0544 71.7165 51.8134L74.0607 45.248C74.1324 45.0453 74.1971 44.9495 74.2534 44.9604C74.3659 44.97 74.4713 45.1371 74.567 45.4589L74.6626 45.778L76.5512 51.7819L76.6116 52.0544C76.6398 52.168 76.658 52.2612 76.6665 52.3296C76.6707 52.357 76.6721 52.3831 76.6721 52.4036C76.6721 52.657 76.471 52.7829 76.0702 52.7829H72.4365L72.1131 52.7679C71.7432 52.7679 71.559 52.635 71.559 52.3735C71.559 52.3598 71.559 52.3447 71.5618 52.3296H70.5592L68.3725 58.4718L68.0237 59.4756C67.8465 59.9426 67.6215 60.3918 67.3501 60.8232C67.0773 61.2532 66.8608 61.4997 66.7005 61.56L66.2561 61.7284C66.1267 61.7777 66.0578 61.8818 66.0522 62.0379C66.0508 62.0462 66.0508 62.0544 66.0508 62.064C66.0508 62.2557 66.1591 62.3516 66.3756 62.3516C66.415 62.3516 66.6386 62.3187 67.045 62.2516C67.173 62.2352 67.353 62.2269 67.585 62.2269C68.087 62.2269 68.5314 62.2365 68.9139 62.2584L70.0656 62.3351C70.2498 62.3461 70.3834 62.3516 70.472 62.3516C70.704 62.3516 70.8151 62.2653 70.8081 62.0927C70.8067 62.0749 70.8039 62.0558 70.8011 62.0379C70.7743 61.8859 70.6506 61.7819 70.4326 61.7284C69.8786 61.5764 69.5059 61.3943 69.3161 61.1807C69.1276 60.9684 69.0334 60.6246 69.0334 60.1508C69.0334 59.6537 69.212 58.8963 69.572 57.8733L70.3693 55.6438C70.6084 54.9563 70.8011 54.551 70.9459 54.4304C71.0907 54.3086 71.4592 54.2469 72.0526 54.2469H76.4063C76.8563 54.2469 77.1277 54.2908 77.2247 54.377C77.3218 54.4633 77.454 54.7851 77.6227 55.3425L78.226 57.3488C78.7182 58.9511 78.9643 60.0193 78.9643 60.5562C78.9643 61.1437 78.7632 61.4888 78.3596 61.5901L77.9855 61.6956C77.7844 61.749 77.6832 61.8585 77.6832 62.0243V62.0379C77.6888 62.2475 77.7929 62.3516 77.9954 62.3516C78.0755 62.3516 78.1993 62.3297 78.368 62.2886C78.6479 62.2269 79.3454 62.1954 80.4577 62.1954C81.5236 62.1954 82.2647 62.2174 82.681 62.2625C82.913 62.279 83.0663 62.2886 83.138 62.2886C83.3531 62.2886 83.4642 62.2064 83.4741 62.0393V62.0366C83.4825 61.849 83.363 61.7257 83.1141 61.6654Z" fill="black"/>
<path d="M61.6493 61.7898C59.9267 61.7898 58.3714 60.9942 56.9792 59.4014C55.4197 57.6047 54.5141 55.2478 54.2638 52.3294C54.216 51.772 54.1921 51.1927 54.1921 50.5929C54.1921 48.0155 54.7391 45.9243 55.8317 44.3165C56.9272 42.7087 58.3503 41.9049 60.1039 41.9049C62.1795 41.9049 63.9429 43.0073 65.3956 45.2135C66.7034 47.202 67.422 49.5726 67.5513 52.3294C67.5654 52.6334 67.5738 52.9416 67.5738 53.2552C67.5738 55.8011 67.0282 57.8594 65.9384 59.4316C64.8471 61.0037 63.4184 61.7898 61.6493 61.7898ZM68.2038 57.3938C68.8676 55.8531 69.229 54.1659 69.2894 52.3308C69.2965 52.1473 69.2979 51.9624 69.2979 51.7775C69.2979 48.5907 68.5104 45.9983 66.9354 44.0002C65.3604 42.0007 63.3214 41.001 60.8197 41.001C57.9973 41.001 55.8106 42.1979 54.2539 44.5932C52.9475 46.6145 52.295 49.0659 52.295 51.9473C52.295 52.076 52.2965 52.2034 52.2993 52.3294C52.3794 55.7709 53.5663 58.614 55.857 60.8545C55.5308 61.0229 55.2313 61.305 54.9557 61.6981L54.545 61.5899C53.7603 61.3872 53.0347 60.8435 52.3682 59.9588L46.6068 52.3294H42.0928V58.1935C42.0928 59.4699 41.9929 60.3779 41.7961 60.9175C41.7525 61.0352 41.7019 61.1407 41.6442 61.2366C41.505 61.1503 41.3939 61.0585 41.3095 60.9585C41.0606 60.6586 40.7498 59.8945 40.373 58.6674L40.1086 57.8443L38.4028 52.3294L34.928 41.0996C34.8408 40.8052 34.7325 40.6573 34.6074 40.6573C34.4808 40.6573 34.3655 40.8106 34.2615 41.1147L30.2691 52.3294H31.2704C31.283 52.2281 31.3337 52.0555 31.4251 51.8131L33.7707 45.2478C33.8424 45.0451 33.9057 44.9492 33.9633 44.9602C34.0744 44.9698 34.1785 45.1369 34.2741 45.4587L34.3725 45.7791L36.2597 51.7816L36.3202 52.0555C36.3483 52.1692 36.3666 52.2609 36.375 52.3294C36.3778 52.3568 36.3807 52.3828 36.3807 52.4034C36.3807 52.6567 36.181 52.7827 35.7788 52.7827H32.1465L31.8216 52.7676C31.4518 52.7676 31.2676 52.6348 31.2676 52.3732C31.2676 52.3595 31.269 52.3458 31.2704 52.3294H30.2691L28.081 58.4716L27.7323 59.4768C27.5551 59.9424 27.3315 60.3916 27.0573 60.823C26.7859 61.253 26.5693 61.4995 26.409 61.5598L25.9646 61.7282C25.8353 61.7775 25.7664 61.8816 25.7607 62.0391V62.0637C25.7607 62.2555 25.8676 62.3513 26.0842 62.3513C26.1236 62.3513 26.3471 62.3184 26.755 62.2513C26.8815 62.2349 27.0615 62.2267 27.2935 62.2267C27.797 62.2267 28.2399 62.2363 28.6238 62.2582L29.7727 62.3349C29.957 62.3458 30.0934 62.3513 30.1805 62.3513C30.4126 62.3513 30.5237 62.265 30.5152 62.0925C30.5152 62.0747 30.5124 62.0555 30.5096 62.0391C30.4815 61.8857 30.3591 61.7816 30.1426 61.7282C29.5857 61.5762 29.2159 61.394 29.026 61.1818C28.8362 60.9681 28.742 60.6244 28.742 60.1505C28.742 59.6534 28.922 58.8961 29.2806 57.8745L30.0779 55.6436C30.3184 54.9561 30.5096 54.5507 30.6544 54.4302C30.7993 54.3083 31.1677 54.2467 31.7612 54.2467H36.1163C36.5649 54.2467 36.8363 54.2905 36.9333 54.3768C37.0289 54.4631 37.1625 54.7849 37.3299 55.3423L37.936 57.3486C38.4267 58.9509 38.6728 60.0191 38.6728 60.5573C38.6728 61.1434 38.4717 61.4885 38.0681 61.5899L37.6941 61.6967C37.4916 61.7487 37.3917 61.8583 37.3917 62.024V62.0391C37.3974 62.2472 37.5 62.3513 37.7039 62.3513C37.7841 62.3513 37.9078 62.3308 38.0766 62.2883C38.3578 62.2267 39.0539 62.1952 40.1677 62.1952C40.7442 62.1952 41.2687 62.1883 41.6962 62.1897C42.0098 62.2034 45.1865 62.3308 45.4396 62.3664C45.7603 62.4061 45.9782 62.4321 46.0921 62.4458C46.2918 62.454 46.3888 62.3568 46.3818 62.1486C46.379 62.1089 46.3706 62.0719 46.3565 62.0391C46.3087 61.9323 46.1976 61.861 46.0204 61.8213C45.1317 61.6392 44.5621 61.3598 44.3132 60.9846C44.0657 60.6093 43.9406 59.8383 43.9406 58.6715V53.1004C43.9406 52.8676 44.0151 52.7498 44.1628 52.7498C44.2612 52.7498 44.3596 52.806 44.4581 52.9183L44.6986 53.2538L51.1546 61.6693L51.3599 61.9542C51.381 61.9843 51.4049 62.0131 51.4288 62.0391H63.9106C64.3774 61.8295 64.8106 61.5871 65.2099 61.305C66.477 60.3916 67.4754 59.0878 68.2038 57.3938Z" fill="black"/>
<path d="M45.8144 51.0226C45.8229 50.8994 45.9143 50.7378 46.0901 50.5337L50.2005 45.8144C52.248 43.4836 53.6331 42.2017 54.3545 41.9676C54.7483 41.8484 54.9409 41.7087 54.9325 41.5485C54.917 41.3499 54.8003 41.2499 54.5823 41.2499C54.5176 41.2499 54.3953 41.2719 54.2097 41.3129C54.048 41.3444 53.7147 41.3595 53.2084 41.3595L52.3042 41.3746L51.1947 41.3335C50.7771 41.3335 50.4002 41.3157 50.0627 41.2787C49.9178 41.2595 49.8096 41.2499 49.7364 41.2499C49.4875 41.2499 49.3624 41.3527 49.3624 41.5567C49.3624 41.7416 49.5452 41.8676 49.9094 41.9361C50.4874 42.0689 50.7756 42.3688 50.7756 42.8344C50.7756 43.374 50.3791 44.0889 49.586 44.9845L44.4223 50.8514L44.2423 51.0349L44.0496 51.202C43.9765 51.202 43.9413 51.0952 43.9413 50.8802V44.9065C43.9413 43.8643 44.0088 43.1686 44.1424 42.8166C44.2746 42.4633 44.5966 42.1497 45.1043 41.8731C45.2984 41.7772 45.3954 41.6608 45.3954 41.5252C45.3954 41.3321 45.2998 41.239 45.1057 41.2499C45.041 41.2499 44.8469 41.2773 44.5249 41.328C44.3491 41.3417 44.1396 41.3485 43.8977 41.3485L42.9921 41.3869L42.5449 41.4074C41.6674 41.4074 41.0234 41.3718 40.6114 41.302C40.4426 41.2677 40.2978 41.2499 40.1768 41.2499C39.9603 41.2499 39.8506 41.354 39.8506 41.5622C39.8506 41.7101 39.9546 41.8142 40.1642 41.8731L40.7548 42.0278C41.2765 42.1689 41.6309 42.4578 41.8151 42.8906C42.0007 43.3261 42.0935 44.0889 42.0935 45.1804V52.3291H46.6062L46.1027 51.6635C45.903 51.3883 45.806 51.1746 45.8144 51.0226Z" fill="black"/>
</g>
<defs>
<clipPath id="clip0_2603_742">
<rect width="58.8194" height="28.0069" fill="white" transform="translate(25.208 40.1182)"/>
</clipPath>
</defs>
</svg>
