<svg width="109" height="109" viewBox="0 0 109 109" fill="none" xmlns="http://www.w3.org/2000/svg">
<path fill-rule="evenodd" clip-rule="evenodd" d="M35.0821 54.1636L34.3588 53.8395C33.4251 53.4506 33.0043 53.0229 33.0043 52.4266C33.0043 51.7915 33.6093 51.4285 34.2405 51.4285C34.7819 51.4285 35.1605 51.5891 35.5423 51.951C35.7032 52.1035 35.9666 52.0937 36.1215 51.9353L36.5943 51.4518C36.7545 51.2879 36.7516 51.025 36.5845 50.868C35.9522 50.2744 35.1865 50.0027 34.2536 50.0027C32.8334 50.0027 31.4789 50.9619 31.4789 52.4396C31.4789 53.6321 32.1759 54.5135 33.583 55.1227L34.3194 55.4339C35.2399 55.8357 35.6739 56.2375 35.6739 56.9245C35.6739 57.5856 35.1478 57.9874 34.2405 57.9874C33.5628 57.9874 32.9488 57.6292 32.5116 57.1733C32.3675 57.0231 32.1131 57.014 31.9526 57.1471L31.3953 57.6089C31.2304 57.7456 31.2023 57.9956 31.3383 58.1603C31.9712 58.9269 33.0096 59.4133 34.2536 59.4133C36.0552 59.4133 37.2256 58.3504 37.2256 56.7949C37.2256 55.5117 36.3577 54.708 35.0821 54.1636Z" fill="black"/>
<path fill-rule="evenodd" clip-rule="evenodd" d="M41.2863 54.5656H40.0896V51.5066H41.2863C42.404 51.5066 43.0616 52.1158 43.0616 53.0361C43.0616 53.9564 42.404 54.5656 41.2863 54.5656ZM41.3521 50.1062H38.9681C38.745 50.1062 38.5642 50.2844 38.5642 50.5044V58.8993C38.5642 59.1258 38.7505 59.3094 38.9803 59.3094H39.6699C39.9018 59.3094 40.0897 59.1242 40.0897 58.8957V55.9651H41.3521C43.2852 55.9651 44.6133 54.7466 44.6133 53.0357C44.6133 51.2988 43.2852 50.1062 41.3521 50.1062Z" fill="black"/>
<path fill-rule="evenodd" clip-rule="evenodd" d="M66.2333 54.0856V51.4932H67.5877C68.6398 51.4932 69.1524 52.0117 69.1524 52.8024C69.1524 53.5801 68.6398 54.0856 67.5877 54.0856H66.2333ZM68.7841 55.2522C69.9677 54.8893 70.7043 53.943 70.7043 52.7505C70.7043 51.208 69.4679 50.1062 67.732 50.1062H65.1195C64.8921 50.1062 64.7078 50.288 64.7078 50.5123V58.9071C64.7078 59.1292 64.8904 59.3094 65.1157 59.3094H65.8173C66.0468 59.3094 66.2333 59.1259 66.2333 58.8997V55.3948H67.1142L69.8068 59.1404C69.883 59.2464 70.0065 59.3094 70.1385 59.3094H70.9461C71.2842 59.3094 71.4801 58.9321 71.2821 58.6622L68.7841 55.2522Z" fill="black"/>
<path fill-rule="evenodd" clip-rule="evenodd" d="M78.0759 50.1064H72.5562C72.328 50.1064 72.1432 50.2888 72.1432 50.5137V51.1924C72.1432 51.4087 72.3212 51.5841 72.5404 51.5841H74.5496V58.9442C74.5496 59.146 74.7157 59.3096 74.9201 59.3096H75.7043C75.9091 59.3096 76.0747 59.146 76.0747 58.9442V51.5841H78.0716C78.3054 51.5841 78.4944 51.3974 78.4944 51.1671V50.519C78.4944 50.2912 78.3071 50.1064 78.0759 50.1064Z" fill="black"/>
<path fill-rule="evenodd" clip-rule="evenodd" d="M51.5335 55.2681C51.5246 55.2238 51.5301 55.1799 51.5663 55.1446C51.5748 55.1359 51.5846 55.1154 51.5804 55.109C51.5672 55.089 51.5876 55.0785 51.5876 55.0645C51.5876 55.0489 51.5774 55.0337 51.5902 55.0179C51.5936 55.0133 51.5923 55.0049 51.5927 54.9982C51.594 54.9821 51.5923 54.9656 51.5957 54.9501C51.6166 54.8547 51.6379 54.7594 51.66 54.6644C51.6826 54.568 51.706 54.4717 51.7307 54.3758C51.7507 54.2989 51.7643 54.2199 51.8009 54.1477C51.8099 54.1295 51.8129 54.108 51.8231 54.0906C51.8384 54.065 51.8333 54.0301 51.8614 54.0104C51.8652 54.0076 51.8665 54.0009 51.8682 53.9957C51.8776 53.9613 51.8869 53.9268 51.8959 53.8922C51.9018 53.8677 51.9091 53.8444 51.9355 53.8326C51.9423 53.8296 51.9482 53.8216 51.9512 53.8144C51.9649 53.7802 51.9849 53.7477 51.9827 53.7088C51.9819 53.6914 51.9802 53.6736 51.9832 53.6565C51.9917 53.5997 52.007 53.5434 52.01 53.4865C52.0117 53.4525 52.0228 53.425 52.0385 53.3982C52.0687 53.3472 52.079 53.29 52.0905 53.2342C52.0994 53.1909 52.1228 53.1568 52.1432 53.1204C52.1518 53.1053 52.1564 53.0949 52.1467 53.0797C52.1377 53.0661 52.1369 53.0514 52.1458 53.0367C52.1765 52.9846 52.1854 52.9251 52.202 52.8684C52.2139 52.8268 52.2131 52.7819 52.2314 52.7411C52.2437 52.7138 52.2548 52.6857 52.2642 52.6572C52.285 52.595 52.3038 52.5324 52.3238 52.4701C52.3289 52.4543 52.3327 52.4369 52.3421 52.4241C52.3651 52.3936 52.3744 52.3589 52.383 52.3229C52.3898 52.2937 52.3991 52.2645 52.4115 52.2371C52.4375 52.1783 52.4664 52.1205 52.4945 52.0625C52.503 52.0452 52.5141 52.0291 52.5209 52.0115C52.5264 51.9979 52.5311 51.9826 52.5307 51.9683C52.5294 51.9412 52.5358 51.9171 52.5469 51.8925C52.5848 51.8082 52.6205 51.7229 52.6584 51.6386C52.7138 51.5152 52.7696 51.3917 52.827 51.2692C52.8407 51.2399 52.8671 51.2161 52.8803 51.1865C52.9113 51.1155 52.9582 51.0542 53.0029 50.9917C53.0357 50.9457 53.0744 50.9039 53.108 50.8585C53.1383 50.8175 53.1847 50.7924 53.2136 50.7506L53.217 50.7501L53.2251 50.7588L53.2324 50.756L53.2379 50.75C53.2464 50.7165 53.2647 50.6937 53.3022 50.6894C53.3065 50.6889 53.3124 50.6835 53.3141 50.679C53.3222 50.6577 53.3431 50.6411 53.3384 50.6146C53.3371 50.6089 53.3409 50.6012 53.3443 50.5959C53.3648 50.5669 53.3869 50.5387 53.4069 50.5093C53.4504 50.4457 53.4708 50.3754 53.4687 50.2987C53.4678 50.2531 53.461 50.209 53.4482 50.1647C53.4099 50.0278 53.3214 49.9417 53.1851 49.9005C53.1468 49.8889 53.108 49.8787 53.0693 49.8679C53.0442 49.8679 53.0191 49.8679 52.9935 49.8679C52.9876 49.8709 52.982 49.8751 52.9756 49.8766C52.9177 49.8904 52.8645 49.913 52.8172 49.949C52.7287 50.0159 52.6567 50.0956 52.6014 50.1921C52.5562 50.2705 52.5179 50.351 52.486 50.435C52.4626 50.4969 52.4387 50.5586 52.4145 50.6201C52.397 50.6638 52.3774 50.7065 52.3608 50.7504C52.3055 50.8962 52.251 51.0424 52.196 51.1884C52.1633 51.275 52.1296 51.3612 52.0977 51.4481C52.0709 51.522 52.0462 51.5968 52.0194 51.6707C51.9636 51.8253 51.9069 51.9796 51.8503 52.1339C51.8405 52.1611 51.8337 52.1907 51.8184 52.2144C51.7954 52.2494 51.7882 52.2878 51.7779 52.3264C51.766 52.3729 51.7532 52.4204 51.732 52.4631C51.6983 52.5306 51.6787 52.602 51.6566 52.673C51.6391 52.7293 51.6374 52.7903 51.6042 52.8421C51.5995 52.8496 51.5991 52.8606 51.5987 52.8701C51.5978 52.904 51.6029 52.9392 51.5765 52.9675L51.574 52.9754C51.5625 53.0206 51.5514 53.0661 51.5391 53.1112C51.5195 53.183 51.4982 53.2545 51.4782 53.3263C51.4595 53.394 51.4403 53.4617 51.4233 53.5298C51.4148 53.5631 51.4131 53.598 51.4041 53.631C51.3922 53.6746 51.3739 53.7166 51.362 53.7602C51.3207 53.9148 51.2815 54.0697 51.241 54.2245C51.2355 54.2457 51.2287 54.2666 51.2236 54.2879C51.207 54.3548 51.1908 54.4219 51.175 54.4889C51.1678 54.5184 51.1601 54.5478 51.1542 54.5776C51.1269 54.7154 51.1031 54.8539 51.0724 54.991C51.0465 55.1083 51.0226 55.2256 51.0056 55.3446C50.9898 55.4523 50.9673 55.5591 50.9477 55.6663C50.9409 55.7057 50.9345 55.7452 50.9285 55.7847C50.9196 55.8406 50.9119 55.8966 50.903 55.9524C50.8834 56.0777 50.8625 56.2028 50.8434 56.3282C50.8315 56.4086 50.8234 56.4894 50.8114 56.5698C50.808 56.5931 50.797 56.6154 50.7889 56.6406C50.7753 56.6286 50.768 56.6189 50.7582 56.6137C50.7429 56.6055 50.7425 56.5937 50.7429 56.5791C50.7437 56.5507 50.7433 56.5221 50.742 56.4937C50.742 56.488 50.7369 56.4795 50.7322 56.4775C50.7148 56.4704 50.7169 56.4561 50.7165 56.4428C50.7152 56.3933 50.7165 56.3438 50.6999 56.2956C50.6952 56.2811 50.7003 56.2631 50.7012 56.2466C50.7029 56.2194 50.7071 56.1922 50.7063 56.1651C50.7059 56.1511 50.7007 56.1341 50.6914 56.1242C50.6688 56.1003 50.6607 56.0746 50.6718 56.0424C50.656 56.0472 50.6484 56.043 50.6496 56.0301C50.6535 55.991 50.6496 55.9486 50.6646 55.914C50.6812 55.8748 50.6752 55.8431 50.6607 55.8085C50.6594 55.8047 50.6565 55.8014 50.6552 55.7975C50.6399 55.7533 50.6186 55.7103 50.6224 55.6618C50.6245 55.6293 50.6147 55.6 50.6045 55.5696C50.5926 55.5324 50.5734 55.4931 50.6003 55.4587C50.59 55.4364 50.5726 55.417 50.5747 55.3997C50.5824 55.3366 50.5483 55.2858 50.5283 55.2315C50.5206 55.2109 50.516 55.1935 50.5253 55.1713C50.4994 55.1632 50.4955 55.1445 50.4964 55.1223C50.4972 55.102 50.5019 55.0789 50.4938 55.0621C50.4785 55.0299 50.4781 54.9966 50.473 54.963C50.4619 54.892 50.4466 54.8215 50.4338 54.7508C50.4317 54.7387 50.4265 54.7225 50.4321 54.7147C50.447 54.6941 50.4393 54.6747 50.4338 54.6559C50.4287 54.6383 50.4432 54.6134 50.4146 54.603C50.4121 54.602 50.4138 54.5883 50.4138 54.5805C50.4142 54.5729 50.4176 54.5636 50.4146 54.5578C50.3933 54.5182 50.4014 54.4716 50.3814 54.4316C50.3755 54.4195 50.3823 54.4019 50.3797 54.3875C50.3755 54.3634 50.3665 54.34 50.3627 54.3158C50.3525 54.2547 50.3452 54.1931 50.335 54.1321C50.3107 53.991 50.2856 53.8501 50.2609 53.709C50.2507 53.6497 50.229 53.5943 50.1941 53.5453C50.1157 53.4347 49.9488 53.4123 49.8369 53.4802C49.7704 53.5204 49.7291 53.5792 49.7027 53.6499C49.6384 53.8244 49.5874 54.0035 49.5205 54.1775C49.5031 54.2226 49.4924 54.2717 49.4758 54.3183C49.4626 54.3557 49.4566 54.3955 49.4451 54.4335C49.4332 54.4732 49.417 54.5116 49.4051 54.5512C49.3864 54.6128 49.3591 54.6713 49.3447 54.735C49.3344 54.7807 49.3225 54.8286 49.291 54.8686C49.2795 54.8836 49.2791 54.9072 49.274 54.927C49.2667 54.9534 49.2676 54.986 49.2514 55.005C49.2263 55.0345 49.2208 55.0685 49.2101 55.1016C49.2046 55.1185 49.205 55.1373 49.1995 55.154C49.1722 55.2316 49.1339 55.3046 49.1126 55.3852C49.0884 55.4781 49.0496 55.5673 49.0177 55.6583C49.0096 55.6817 49.0019 55.7055 48.9964 55.7297C48.9725 55.8327 49.0292 55.9324 49.1314 55.966C49.2161 55.9939 49.2936 55.9741 49.3655 55.9278C49.3881 55.9132 49.417 55.8952 49.4239 55.873C49.4315 55.8481 49.4443 55.8264 49.4528 55.8025C49.4711 55.75 49.4877 55.6971 49.5188 55.65C49.5269 55.6378 49.5307 55.6223 49.5341 55.6078C49.5405 55.5804 49.5486 55.5544 49.5763 55.5389C49.5622 55.5288 49.5673 55.5199 49.5725 55.5091C49.5874 55.4769 49.6035 55.4448 49.6138 55.4111C49.621 55.3873 49.6099 55.3582 49.6363 55.34C49.644 55.2964 49.6487 55.2518 49.6746 55.2136C49.6674 55.1747 49.6951 55.1457 49.7108 55.117C49.7287 55.0846 49.7313 55.0547 49.73 55.0216C49.7428 55.015 49.7615 55.0148 49.7585 54.9924C49.7577 54.9883 49.7653 54.9829 49.7696 54.9785C49.7785 54.9689 49.7904 54.9611 49.7956 54.95C49.8071 54.9267 49.8139 54.9013 49.8245 54.8775C49.8279 54.8699 49.836 54.8603 49.8432 54.8591C49.8765 54.8534 49.9143 54.8934 49.9084 54.9256C49.9071 54.9329 49.9075 54.9404 49.9071 54.9488C49.922 54.9453 49.9335 54.9425 49.9454 54.9397C49.942 54.9814 49.9339 55.0182 49.9373 55.0541C49.939 55.0733 49.9429 55.0929 49.9441 55.1127C49.9446 55.121 49.9539 55.1287 49.9586 55.1368C49.968 55.1518 49.9816 55.1658 49.9854 55.1821C49.994 55.2179 49.9978 55.2549 50.0038 55.2914C50.0174 55.3813 50.0302 55.4712 50.0451 55.5608C50.0548 55.6207 50.0659 55.6802 50.0612 55.7414C50.06 55.7547 50.06 55.7716 50.0668 55.7815C50.0851 55.807 50.0859 55.8354 50.0898 55.864C50.0949 55.9036 50.1004 55.9432 50.1068 55.9827C50.1251 56.1011 50.1438 56.2195 50.1621 56.338C50.1796 56.452 50.1966 56.5662 50.2132 56.6803C50.2256 56.7618 50.2367 56.8434 50.2494 56.9248C50.2673 57.0403 50.286 57.1558 50.3048 57.2712C50.3129 57.3209 50.3282 57.3701 50.3112 57.4209C50.3082 57.4298 50.3078 57.4394 50.3065 57.4477C50.3554 57.4849 50.3508 57.5099 50.3248 57.5439C50.3503 57.5458 50.3554 57.5628 50.3588 57.5833C50.3699 57.6467 50.375 57.7108 50.3908 57.7734C50.3955 57.7912 50.3912 57.8111 50.3912 57.83C50.3912 57.8364 50.3925 57.8431 50.3942 57.8493C50.3997 57.8675 50.4082 57.885 50.4121 57.9035C50.4265 57.9816 50.4406 58.0599 50.4529 58.1383C50.4751 58.277 50.5023 58.4146 50.5326 58.5517C50.5432 58.5987 50.5496 58.6474 50.567 58.6918C50.5977 58.7693 50.6752 58.8363 50.7838 58.8244C50.8753 58.8144 50.9749 58.7603 51.0099 58.6494C51.0435 58.5424 51.0575 58.432 51.075 58.3221C51.0916 58.2174 51.1052 58.1121 51.1197 58.0069C51.1337 57.9021 51.1482 57.7972 51.1614 57.6921C51.175 57.5883 51.187 57.4843 51.2002 57.3804C51.2151 57.2655 51.23 57.1507 51.2453 57.036C51.2513 56.991 51.2538 56.9447 51.267 56.9017C51.2794 56.8612 51.3011 56.8236 51.2947 56.7808C51.3437 56.7644 51.3483 56.7478 51.3177 56.7135C51.3113 56.7062 51.3053 56.6953 51.3053 56.686C51.3049 56.6656 51.3087 56.6452 51.3109 56.6249C51.3168 56.5784 51.3266 56.532 51.327 56.4855C51.3275 56.4541 51.3351 56.424 51.3543 56.4053C51.3909 56.3691 51.3875 56.3213 51.4041 56.2797C51.4165 56.2486 51.4037 56.2179 51.405 56.1847C51.3815 56.1814 51.3701 56.1686 51.3726 56.1455C51.376 56.1181 51.3769 56.0904 51.3824 56.0636C51.396 55.9981 51.4122 55.9332 51.4263 55.8679C51.4288 55.855 51.4292 55.8404 51.4263 55.8276C51.4216 55.8091 51.4275 55.7961 51.4395 55.7829C51.4467 55.7752 51.4552 55.7654 51.4556 55.756C51.4586 55.7143 51.4582 55.6724 51.4603 55.6306C51.4612 55.6175 51.4646 55.6043 51.4684 55.5916C51.4808 55.5504 51.505 55.5119 51.4922 55.465C51.4893 55.4531 51.4974 55.4345 51.5063 55.4238C51.5463 55.3764 51.5442 55.3245 51.5335 55.2681Z" fill="black"/>
<path fill-rule="evenodd" clip-rule="evenodd" d="M53.2318 54.3945C53.1969 54.4642 53.179 54.54 53.1726 54.6173C53.1649 54.7107 53.1615 54.8044 53.1564 54.898C53.1539 54.9461 53.1521 54.9943 53.1487 55.0424C53.1449 55.0974 53.1398 55.1522 53.1355 55.2071C53.1338 55.2304 53.1381 55.2559 53.1296 55.2764C53.1121 55.3192 53.1062 55.3622 53.1096 55.4073L53.1087 55.4113C53.1109 55.446 53.0977 55.48 53.1053 55.5154C53.1087 55.5304 53.1062 55.5472 53.1045 55.5629C53.1011 55.5942 53.0862 55.6283 53.0942 55.6558C53.1109 55.7098 53.0977 55.7617 53.0981 55.8143C53.0985 55.8604 53.0802 55.9045 53.0862 55.9523C53.0921 56.0013 53.0883 56.0514 53.0883 56.1011C53.0887 56.1408 53.1023 56.1769 53.1215 56.2108C53.1513 56.2626 53.2054 56.2908 53.2565 56.2816C53.3544 56.264 53.4596 56.2138 53.5439 56.1334C53.6001 56.0793 53.6307 56.012 53.6477 55.9387C53.6563 55.9002 53.6563 55.8593 53.6567 55.8194C53.6567 55.7787 53.6699 55.7403 53.6695 55.6984C53.6678 55.5815 53.6763 55.4645 53.6818 55.3476C53.6835 55.3176 53.695 55.2867 53.6899 55.2582C53.681 55.208 53.6942 55.1597 53.6942 55.1105C53.6942 55.0865 53.6988 55.0587 53.7206 55.0451C53.7223 55.0182 53.7176 54.9955 53.7257 54.9786C53.7393 54.9495 53.7397 54.9186 53.7474 54.889C53.7504 54.879 53.7546 54.8693 53.7584 54.8596C53.7606 54.8535 53.7665 54.8474 53.7657 54.8419C53.7623 54.8163 53.7746 54.7962 53.7874 54.7766C53.8393 54.6982 53.893 54.6214 53.9718 54.5649C54.0211 54.5292 54.0697 54.492 54.1174 54.4537C54.1855 54.3988 54.2545 54.3435 54.2481 54.2432C54.2477 54.2365 54.2523 54.2296 54.2519 54.223C54.2506 54.2054 54.2515 54.1863 54.2451 54.1706C54.2311 54.1378 54.2132 54.107 54.1966 54.0753C54.1727 54.0288 54.131 54.0142 54.082 54.0142C54.0335 54.0142 53.9905 54.0338 53.9479 54.0537C53.9198 54.0669 53.8921 54.081 53.8636 54.0934C53.8368 54.1052 53.8074 54.1127 53.7814 54.1268C53.7346 54.1526 53.6839 54.1685 53.6316 54.1739C53.5515 54.1821 53.474 54.1981 53.4025 54.235C53.3301 54.272 53.2684 54.3217 53.2318 54.3945Z" fill="black"/>
<path fill-rule="evenodd" clip-rule="evenodd" d="M52.7246 54.8519C52.717 54.8332 52.7016 54.8146 52.7029 54.7969C52.7055 54.7592 52.6927 54.7264 52.6761 54.6958C52.6612 54.6678 52.6361 54.6484 52.6003 54.6436C52.5701 54.6397 52.542 54.6415 52.513 54.6496C52.4572 54.6655 52.4083 54.6932 52.3606 54.7257C52.2874 54.7754 52.2307 54.8369 52.1937 54.9169C52.1549 55.0002 52.129 55.0866 52.12 55.1776C52.1119 55.2586 52.1047 55.3395 52.0975 55.4204C52.097 55.4259 52.0975 55.4315 52.0975 55.437C52.0958 55.4875 52.0945 55.538 52.0919 55.5885C52.0881 55.6696 52.0838 55.7507 52.0787 55.8317C52.0779 55.8487 52.0847 55.8674 52.0677 55.8822C52.0634 55.8861 52.0643 55.8973 52.0643 55.9052C52.0643 55.9391 52.0711 55.9744 52.0638 56.0067C52.0485 56.0774 52.0506 56.1486 52.0476 56.2197C52.0442 56.301 52.0383 56.3821 52.0361 56.4633C52.034 56.55 52.0319 56.6369 52.0361 56.7234C52.0396 56.8002 52.0872 56.8417 52.1652 56.8486C52.2039 56.852 52.2384 56.8427 52.2729 56.8245C52.344 56.7872 52.4091 56.7435 52.464 56.6857L52.4772 56.6773C52.5053 56.688 52.5083 56.6632 52.5164 56.6497C52.5288 56.6497 52.5381 56.6497 52.5501 56.6497C52.5535 56.6362 52.5564 56.6236 52.5603 56.6091C52.5454 56.6077 52.5352 56.6068 52.5207 56.6055C52.5241 56.5891 52.5262 56.576 52.5296 56.5631C52.5334 56.5487 52.5398 56.5348 52.542 56.5203C52.5488 56.4797 52.5475 56.4364 52.5615 56.3987C52.5824 56.3426 52.5671 56.2871 52.5713 56.2317C52.5743 56.1925 52.5692 56.1527 52.573 56.1136C52.5794 56.0466 52.5897 55.98 52.5986 55.9133C52.6033 55.8821 52.6097 55.8513 52.6143 55.8201C52.619 55.7904 52.6233 55.7607 52.6254 55.7307C52.6271 55.7064 52.6263 55.683 52.6361 55.6584C52.6484 55.629 52.6531 55.5955 52.6548 55.5635C52.6582 55.5045 52.6569 55.4453 52.6578 55.3863C52.6582 55.3808 52.6573 55.3744 52.6595 55.3699C52.6812 55.329 52.6859 55.2843 52.6906 55.2395C52.6935 55.2082 52.7008 55.1768 52.6999 55.1457C52.6991 55.1225 52.7033 55.1028 52.7127 55.0822C52.7191 55.0691 52.7221 55.0539 52.7233 55.0394C52.7246 55.02 52.7225 55.0005 52.7221 54.981C52.7174 54.9597 52.7059 54.939 52.6995 54.9167C52.6893 54.8817 52.6961 54.8686 52.7246 54.8519Z" fill="black"/>
<path fill-rule="evenodd" clip-rule="evenodd" d="M56.4898 54.6938C56.5285 54.7129 56.5698 54.7156 56.612 54.7042C56.6762 54.6868 56.7295 54.6472 56.7882 54.6189C56.8338 54.5969 56.8683 54.5618 56.8976 54.525C56.9326 54.4815 56.9675 54.4355 56.9666 54.3727C56.9658 54.3439 56.9781 54.315 56.9598 54.2873C56.9573 54.2834 56.9594 54.2765 56.9594 54.271C56.9632 54.1871 56.9662 54.1032 56.9709 54.0194C56.9722 53.9963 56.9768 53.9734 56.9802 53.9499C56.9913 53.951 57.0003 53.9518 57.0075 53.9524C56.9986 53.9336 56.9896 53.9159 56.9785 53.8925C56.9943 53.8986 57.0028 53.9018 57.0113 53.9051L57.0194 53.8987C57.0156 53.8911 57.0139 53.8795 57.0079 53.8766C56.9794 53.8632 56.9832 53.8376 56.9841 53.8157C56.9858 53.7917 56.9866 53.766 57.0058 53.7461C57.0126 53.7389 57.016 53.731 57.0152 53.7175C57.0113 53.6701 57.0126 53.6223 57.0122 53.5747C57.0118 53.5454 57.0096 53.5159 57.0118 53.4868C57.0139 53.4554 57.0032 53.424 57.0169 53.392C57.022 53.3792 57.0101 53.3603 57.0092 53.344C57.0075 53.3112 57.0075 53.2782 57.0088 53.2453C57.0096 53.2287 57.0181 53.2122 57.0173 53.1958C57.0169 53.179 57.036 53.1637 57.0233 53.1479C57.0062 53.1268 57.0377 53.1206 57.0347 53.1013C57.0313 53.0798 57.0475 53.055 57.0428 53.0341C57.0347 52.9966 57.0479 52.9636 57.0556 52.9295C57.0624 52.8968 57.0671 52.8676 57.0501 52.8352C57.0382 52.8128 57.0267 52.7887 57.0271 52.7599C57.0271 52.726 57.0028 52.7031 56.9641 52.6999C56.9096 52.6955 56.8546 52.6969 56.8048 52.7233C56.7333 52.7613 56.6745 52.8147 56.6358 52.8851C56.6005 52.9492 56.5728 53.017 56.5681 53.0917C56.566 53.1204 56.5621 53.149 56.5592 53.1776C56.5396 53.3457 56.5191 53.5136 56.5004 53.6819C56.4876 53.8009 56.4774 53.9202 56.4659 54.0393C56.4553 54.1461 56.4434 54.2528 56.434 54.3598C56.4276 54.4296 56.4221 54.4998 56.4216 54.5699C56.4212 54.6213 56.4391 54.6687 56.4898 54.6938Z" fill="black"/>
<path fill-rule="evenodd" clip-rule="evenodd" d="M52.8757 53.7833L52.8791 53.7812C52.9009 53.7511 52.9298 53.7237 52.9417 53.6904C52.9617 53.6352 52.9737 53.5764 52.9396 53.5198C52.9319 53.507 52.9277 53.492 52.9221 53.4778C52.9051 53.4331 52.8834 53.4187 52.8229 53.4197C52.7808 53.4194 52.731 53.4352 52.6875 53.463C52.636 53.4958 52.5879 53.5338 52.5407 53.5722C52.5177 53.5911 52.4989 53.6158 52.4785 53.6381C52.4491 53.6704 52.4406 53.7129 52.4223 53.7508C52.407 53.7837 52.4001 53.8182 52.4001 53.8548C52.4001 53.9022 52.4197 53.9448 52.4546 53.9698C52.4934 53.9975 52.5436 54.0164 52.5943 53.9912C52.6313 53.9728 52.668 53.9529 52.7024 53.9304C52.7663 53.8886 52.8349 53.8518 52.8757 53.7833Z" fill="black"/>
<path fill-rule="evenodd" clip-rule="evenodd" d="M54.7551 54.7545C54.6982 54.7239 54.7068 54.6934 54.7551 54.6628C54.7551 54.6934 54.7551 54.7239 54.7551 54.7545Z" fill="black"/>
<path fill-rule="evenodd" clip-rule="evenodd" d="M60.2535 53.6278C60.2471 53.6292 60.2373 53.6284 60.2352 53.6321C60.2212 53.6548 60.208 53.678 60.196 53.7018C60.1616 53.7714 60.116 53.8323 60.0521 53.8778C60.0125 53.906 59.9721 53.9337 59.9287 53.9552C59.875 53.9818 59.8197 54.0065 59.7626 54.0236C59.5978 54.0729 59.4326 54.1193 59.2734 54.1849C59.1589 54.2321 59.0443 54.2799 58.9307 54.3295C58.7672 54.4009 58.6109 54.486 58.4534 54.5694C58.3708 54.6131 58.2865 54.6533 58.2039 54.6964C58.1298 54.7348 58.0565 54.7752 57.9829 54.8142C57.9424 54.8357 57.9007 54.8552 57.8611 54.8774C57.7525 54.9375 57.6453 54.9989 57.5371 55.0594C57.4545 55.1055 57.3711 55.1502 57.2893 55.197C57.2131 55.2405 57.1382 55.2863 57.0628 55.3307C56.9559 55.3936 56.8478 55.4547 56.7418 55.519C56.6502 55.5746 56.5608 55.6331 56.471 55.6913C56.4318 55.7167 56.3854 55.7322 56.3556 55.771C56.2973 55.794 56.2475 55.8308 56.1959 55.8653C56.1176 55.918 56.041 55.9727 55.9622 56.0249C55.9388 56.0405 55.9192 56.0567 55.903 56.0806C55.8919 56.0971 55.8677 56.1049 55.8489 56.1163C55.8238 56.1319 55.8059 56.1484 55.8076 56.1836C55.8098 56.2287 55.8029 56.2742 55.8 56.3196C55.7995 56.3276 55.7974 56.3383 55.8017 56.3434C55.814 56.3588 55.8047 56.3689 55.7961 56.3797C55.7859 56.3923 55.7761 56.4038 55.794 56.4184C55.7974 56.4214 55.797 56.4311 55.7957 56.4372C55.7923 56.4533 55.788 56.4693 55.7834 56.4881C55.8047 56.5063 55.8072 56.5298 55.7961 56.5571C55.7897 56.5734 55.7851 56.5913 55.7834 56.6088C55.7825 56.6199 55.7859 56.6329 55.7915 56.6428C55.8038 56.6648 55.7902 56.6679 55.7719 56.6706C55.7731 56.6785 55.7727 56.6874 55.7765 56.6941C55.7897 56.7183 55.7978 56.7419 55.78 56.7673L55.7778 56.7791C55.8034 56.8266 55.774 56.8741 55.7778 56.9216C55.7808 56.9568 55.7817 56.9923 55.7821 57.0278C55.7821 57.0474 55.7761 57.0673 55.7897 57.0853C55.7915 57.0878 55.7885 57.0934 55.7893 57.0974C55.7923 57.1167 55.7616 57.1237 55.7723 57.1473C55.7795 57.1639 55.7838 57.1832 55.7838 57.2012C55.7834 57.2528 55.7804 57.3043 55.7783 57.3558C55.7765 57.4032 55.7804 57.4516 55.771 57.4976C55.7663 57.5216 55.7915 57.5329 55.7825 57.5553C55.7753 57.5732 55.7629 57.5933 55.7787 57.6141L55.777 57.6255C55.7616 57.6596 55.7804 57.6914 55.7795 57.7279C55.734 57.7425 55.7553 57.7846 55.7506 57.8185C55.7642 57.8271 55.7885 57.8256 55.7846 57.8546C55.7757 57.8569 55.7659 57.8595 55.7557 57.8622C55.7467 57.8842 55.7932 57.894 55.768 57.9187C55.7855 57.9373 55.7846 57.9562 55.7731 57.9784C55.7629 57.9981 55.7574 58.0201 55.7476 58.0472C55.7557 58.0692 55.7655 58.0993 55.7783 58.1283C55.7842 58.1424 55.78 58.1508 55.771 58.1613C55.7416 58.1964 55.7421 58.1967 55.7651 58.2393C55.7702 58.2485 55.774 58.2584 55.777 58.2657C55.7659 58.273 55.7553 58.2801 55.7446 58.2871C55.7574 58.303 55.7293 58.3363 55.7697 58.3423C55.7778 58.3435 55.7829 58.3612 55.7906 58.3725C55.7812 58.3774 55.7731 58.3818 55.7642 58.3866C55.7719 58.4119 55.7889 58.4366 55.7604 58.4606C55.7774 58.4785 55.7927 58.4945 55.8098 58.5128C55.8047 58.5272 55.7966 58.5477 55.788 58.5698C55.7974 58.572 55.8051 58.5738 55.8144 58.576C55.8 58.5958 55.8038 58.612 55.8234 58.6249C55.8161 58.6538 55.8391 58.6802 55.8293 58.7104C55.8225 58.713 55.814 58.7162 55.8025 58.7207C55.8161 58.7409 55.8161 58.7589 55.8072 58.7793C55.7983 58.7994 55.817 58.8318 55.8353 58.8276C55.8613 58.8217 55.8634 58.8402 55.8621 58.8512C55.857 58.8977 55.8749 58.9366 55.8979 58.9739C55.8783 59.0177 55.8745 59.0214 55.8332 59.0411C55.8481 59.0431 55.8583 59.0444 55.8685 59.0457L55.8702 59.0524C55.8617 59.0565 55.8532 59.0604 55.843 59.0654C55.8438 59.0855 55.8455 59.1067 55.8464 59.1279C55.8468 59.1464 55.8574 59.1548 55.8745 59.158C55.9077 59.1641 55.9064 59.1645 55.9124 59.1984C55.9141 59.2075 55.9251 59.2151 55.9307 59.2219C55.9179 59.2568 55.9056 59.2913 55.8924 59.3287C55.906 59.3434 55.9205 59.3601 55.9273 59.3833C55.9298 59.3924 55.9494 59.3967 55.9635 59.4045C55.9452 59.4211 55.9303 59.4369 55.9354 59.462C55.9358 59.4655 55.9298 59.4701 55.9277 59.4745C55.9213 59.4855 55.9154 59.4965 55.9081 59.509C55.9239 59.5176 55.9345 59.5236 55.9464 59.5302C55.9324 59.5417 55.9162 59.5509 55.9064 59.5645C55.8958 59.5786 55.8941 59.5987 55.8838 59.6131C55.8681 59.6354 55.8506 59.6582 55.8298 59.6754C55.7902 59.7081 55.7467 59.7364 55.6965 59.7513L55.6905 59.7571C55.6433 59.7571 55.5956 59.7571 55.5479 59.7571C55.539 59.7537 55.5305 59.7493 55.5211 59.7471C55.4014 59.7188 55.3278 59.6478 55.2942 59.5292C55.2584 59.4038 55.2499 59.2777 55.2571 59.1488C55.2626 59.0526 55.2618 58.9562 55.2652 58.8599C55.2673 58.7898 55.2733 58.7197 55.2758 58.6495C55.2784 58.585 55.2784 58.5203 55.2801 58.4557C55.2818 58.3996 55.2861 58.3436 55.2861 58.2875C55.2861 58.245 55.2827 58.203 55.2878 58.16C55.292 58.1224 55.281 58.0833 55.2814 58.0449C55.2818 57.9928 55.2869 57.9408 55.2899 57.8887C55.2903 57.8846 55.2937 57.8796 55.292 57.8767C55.2724 57.8366 55.3001 57.7986 55.2971 57.759C55.2946 57.7191 55.2963 57.679 55.2963 57.6391C55.2967 57.5276 55.2971 57.4161 55.2971 57.3046C55.298 57.0814 55.298 56.8583 55.2988 56.6351C55.2988 56.6024 55.3022 56.5697 55.3035 56.537C55.3039 56.5265 55.3022 56.5159 55.301 56.5014C55.2507 56.5209 55.2077 56.5467 55.1677 56.5753C55.0919 56.6292 55.0183 56.686 54.9442 56.7422C54.868 56.8001 54.7922 56.8585 54.7168 56.9171C54.6606 56.9605 54.6057 57.0051 54.5495 57.0483C54.4946 57.0908 54.4375 57.1309 54.3834 57.1746C54.2876 57.2524 54.194 57.3329 54.0982 57.411C54.0313 57.4654 53.9619 57.5167 53.8951 57.571C53.7954 57.6516 53.6979 57.734 53.5987 57.8148C53.5289 57.8718 53.4582 57.9275 53.3876 57.9838L53.3778 57.9914C53.336 58.0355 53.2943 58.0797 53.253 58.1239L53.2458 58.134C53.1998 58.1737 53.1534 58.2131 53.1074 58.2529C53.0721 58.2837 53.0354 58.3136 53.0022 58.3467C52.9631 58.3855 52.9269 58.4274 52.889 58.4676C52.8817 58.4755 52.8715 58.4811 52.863 58.4879C52.8553 58.4939 52.8443 58.4987 52.8409 58.5066C52.814 58.5682 52.7566 58.6044 52.7127 58.6511C52.6229 58.7469 52.5262 58.8366 52.4326 58.929C52.4211 58.9405 52.41 58.9529 52.4002 58.9661C52.3708 59.0064 52.341 59.0457 52.301 59.0767L52.298 59.0794C52.2512 59.1283 52.2052 59.1779 52.1575 59.2259C52.1303 59.2535 52.1 59.2784 52.0715 59.3047C52.0349 59.3383 51.9983 59.3718 51.9625 59.406C51.9293 59.4374 51.8923 59.4564 51.845 59.4586C51.7611 59.4624 51.6811 59.4541 51.607 59.4094C51.5691 59.3864 51.541 59.3564 51.5201 59.3178C51.4942 59.2691 51.4839 59.2157 51.4814 59.1628C51.4801 59.1289 51.4852 59.091 51.5082 59.0606C51.5418 59.0166 51.5755 58.9724 51.6095 58.9287C51.7011 58.8111 51.8135 58.7131 51.9216 58.6113C51.9987 58.5391 52.077 58.4686 52.1545 58.397C52.2188 58.3376 52.2818 58.2767 52.347 58.2183C52.4164 58.1563 52.4871 58.0961 52.5582 58.036C52.6386 57.9677 52.7195 57.8998 52.8013 57.8328C52.869 57.7772 52.9384 57.7243 53.0056 57.6681C53.0597 57.6228 53.1104 57.5736 53.1645 57.5278C53.1989 57.4984 53.2364 57.4725 53.2722 57.4442C53.3394 57.3906 53.4063 57.3365 53.4736 57.2825C53.5191 57.2458 53.5638 57.2086 53.6098 57.1722C53.6784 57.1178 53.7473 57.0642 53.8155 57.0097C53.847 56.9847 53.8763 56.9569 53.9083 56.9332C53.9709 56.8871 54.0356 56.8435 54.0986 56.798C54.1986 56.7257 54.2983 56.6522 54.3988 56.58C54.4596 56.5362 54.5218 56.4945 54.5827 56.451C54.6436 56.4075 54.704 56.3632 54.7641 56.3185C54.8658 56.2427 54.9659 56.1653 55.0681 56.0905C55.1366 56.0405 55.2073 55.9935 55.2775 55.9462C55.2907 55.9376 55.2963 55.9286 55.298 55.9134C55.3044 55.8593 55.3048 55.8054 55.2993 55.7512C55.2967 55.7242 55.2988 55.6967 55.2988 55.6693C55.2984 55.6558 55.3022 55.6382 55.2848 55.6348C55.275 55.633 55.2618 55.6409 55.2524 55.6472C55.2005 55.6811 55.1494 55.716 55.0983 55.7503C55.0936 55.7532 55.0881 55.7556 55.0825 55.756C55.0421 55.7591 55.0072 55.7777 54.9706 55.7927C54.9621 55.7963 54.9535 55.8009 54.9446 55.8045C54.9361 55.8079 54.9254 55.8154 54.919 55.8128C54.8927 55.8023 54.8701 55.8138 54.8462 55.8192C54.7777 55.8346 54.7087 55.8443 54.6385 55.8394C54.5227 55.8313 54.4264 55.783 54.3562 55.6918C54.323 55.6488 54.3089 55.5958 54.297 55.5432C54.2719 55.4314 54.2791 55.3182 54.28 55.2052C54.2804 55.1514 54.2847 55.0972 54.28 55.0439C54.2761 55.0057 54.2693 54.9681 54.2719 54.9296C54.2723 54.92 54.271 54.9093 54.2749 54.901C54.2979 54.8486 54.2906 54.7924 54.2966 54.7379C54.3047 54.6671 54.3102 54.596 54.32 54.5255C54.3294 54.4616 54.3404 54.3978 54.3558 54.335C54.3881 54.2016 54.4358 54.0735 54.512 53.9582C54.5618 53.8834 54.6138 53.8091 54.6734 53.742C54.7134 53.6974 54.7683 53.6658 54.8169 53.6287C54.8241 53.6229 54.8343 53.62 54.8416 53.6135C54.9063 53.5544 54.9906 53.5416 55.071 53.521C55.1085 53.5116 55.1443 53.5218 55.1775 53.5361C55.192 53.5424 55.2064 53.5593 55.2116 53.5744C55.2205 53.601 55.2286 53.6281 55.2154 53.6586C55.206 53.6798 55.209 53.7059 55.2039 53.7301C55.1928 53.783 55.1575 53.8225 55.1345 53.8686C55.1285 53.881 55.1128 53.8896 55.1004 53.898C55.0753 53.9149 55.0561 53.9354 55.0464 53.9644C55.0429 53.9744 55.0361 53.9855 55.028 53.9912C55.0055 54.0063 54.9995 54.0284 54.9889 54.0509C54.977 54.0753 54.9642 54.1013 54.9476 54.124C54.9429 54.1307 54.9361 54.1374 54.9344 54.145C54.9122 54.2396 54.8582 54.323 54.8399 54.4196C54.8326 54.4578 54.8237 54.4965 54.8177 54.5352C54.8147 54.5555 54.8207 54.5788 54.8284 54.5986C54.8373 54.6219 54.8403 54.6424 54.8292 54.6659C54.822 54.6818 54.8186 54.6998 54.816 54.7172C54.8109 54.7497 54.8071 54.7824 54.8041 54.8152C54.802 54.8371 54.8024 54.8592 54.8015 54.8813C54.8011 54.8922 54.8037 54.9039 54.8007 54.9141C54.7802 54.9852 54.7943 55.057 54.7994 55.1278C54.802 55.1674 54.8194 55.208 54.8382 55.244C54.8616 55.2889 54.9033 55.3109 54.9565 55.3065C55.0515 55.2986 55.1281 55.2566 55.1945 55.1896C55.2571 55.1266 55.2818 55.0493 55.295 54.9668C55.3142 54.8487 55.3333 54.7306 55.3435 54.6112C55.3499 54.5398 55.3614 54.4689 55.3678 54.3975C55.3708 54.3615 55.3661 54.3248 55.3653 54.2884C55.3653 54.2832 55.3644 54.2755 55.3674 54.2732C55.3895 54.2554 55.3831 54.2293 55.3853 54.2077C55.3972 54.0676 55.4057 53.9273 55.4168 53.7871C55.4257 53.6773 55.4334 53.5672 55.4487 53.4583C55.4598 53.3803 55.5079 53.3226 55.5803 53.2873C55.6041 53.2758 55.6284 53.266 55.6527 53.2558C55.6603 53.2525 55.6684 53.2491 55.6765 53.248C55.7395 53.2399 55.8042 53.2368 55.8604 53.2684C55.8919 53.2859 55.9183 53.3162 55.9392 53.3461C55.9507 53.3629 55.9481 53.3907 55.9481 53.4135C55.9481 53.4477 55.9452 53.4819 55.9443 53.5161C55.9443 53.5253 55.9481 53.5346 55.9507 53.5436C55.952 53.5474 55.9571 53.5532 55.9567 53.5538C55.9298 53.5787 55.9626 53.6127 55.9413 53.6414C55.9307 53.6556 55.9392 53.6836 55.9379 53.7053C55.9349 53.7647 55.9435 53.824 55.9264 53.8836C55.9132 53.93 55.9115 53.98 55.9081 54.0287C55.9013 54.1247 55.8979 54.221 55.8902 54.317C55.8826 54.4144 55.8719 54.5117 55.863 54.609C55.8609 54.6282 55.8596 54.6475 55.8574 54.6667C55.8536 54.7061 55.8489 54.7455 55.846 54.7849C55.843 54.8227 55.8425 54.8607 55.8404 54.8986C55.8387 54.9247 55.8332 54.9507 55.8336 54.9766C55.8345 55.0215 55.8391 55.0663 55.8417 55.1112C55.8425 55.1193 55.8438 55.1284 55.8408 55.1356C55.8234 55.1806 55.8315 55.2266 55.8345 55.2725C55.8349 55.2806 55.8353 55.2889 55.834 55.297C55.8268 55.3456 55.8166 55.3937 55.8196 55.4436C55.8217 55.4816 55.8187 55.5199 55.8191 55.5581C55.8191 55.5669 55.8238 55.5757 55.8272 55.5893C55.8425 55.5809 55.8549 55.5752 55.866 55.568C55.9264 55.5285 55.986 55.4875 56.0473 55.4493C56.1585 55.3802 56.2704 55.3128 56.382 55.2445C56.4689 55.1916 56.5553 55.1387 56.6413 55.0853C56.6979 55.0502 56.7533 55.0128 56.8103 54.9789C56.8435 54.9591 56.8797 54.9438 56.9151 54.927C56.95 54.9103 56.984 54.8925 57.0121 54.8648C57.0172 54.8595 57.0262 54.8536 57.033 54.8544C57.0577 54.8574 57.0747 54.8432 57.0935 54.8316C57.1445 54.8006 57.1969 54.7713 57.2484 54.7412C57.2748 54.7258 57.3012 54.7097 57.3276 54.6945C57.3757 54.6668 57.4239 54.6391 57.4724 54.612C57.6048 54.5379 57.7372 54.4637 57.8701 54.3903C57.9761 54.3317 58.0829 54.2752 58.1885 54.2158C58.3039 54.1509 58.418 54.0838 58.5326 54.0175C58.553 54.0057 58.5743 53.9949 58.5934 53.9811C58.613 53.9669 58.6118 53.9554 58.59 53.9444C58.507 53.9027 58.4691 53.8335 58.4649 53.7448C58.4623 53.6884 58.464 53.6318 58.4627 53.5754C58.461 53.5015 58.4755 53.429 58.4798 53.3556C58.4802 53.346 58.4823 53.3355 58.4793 53.3269C58.4619 53.2749 58.4687 53.2245 58.4857 53.1741C58.4879 53.1678 58.4887 53.1598 58.487 53.1538C58.4781 53.1277 58.4678 53.102 58.4874 53.0762C58.4844 53.0218 58.4985 52.9687 58.4981 52.9143C58.4968 52.8082 58.4985 52.7021 58.4998 52.5961C58.4998 52.5664 58.4866 52.5427 58.4687 52.5214C58.4602 52.5112 58.4478 52.4988 58.4359 52.4974C58.3814 52.4906 58.3261 52.4738 58.2745 52.5094C58.2405 52.5328 58.2026 52.5509 58.1707 52.5765C58.1502 52.5929 58.134 52.617 58.1225 52.6408C58.1149 52.6572 58.1042 52.6672 58.0915 52.6775C58.0646 52.6986 58.0387 52.7186 58.028 52.755C58.0229 52.7715 57.9991 52.7825 57.9812 52.7981C57.9778 52.8267 57.9769 52.8598 57.9544 52.887C57.9497 52.8924 57.9505 52.9023 57.9497 52.9102C57.9467 52.9382 57.9531 52.9673 57.9352 52.9936C57.9318 52.999 57.9399 53.0121 57.9433 53.025C57.9241 53.025 57.9033 53.0236 57.9033 53.0513C57.9092 53.0552 57.916 53.0596 57.9199 53.0624C57.9199 53.0816 57.9199 53.099 57.9199 53.1168C57.9092 53.1223 57.8931 53.1256 57.8871 53.1351C57.882 53.1433 57.8867 53.1589 57.8896 53.1707C57.8931 53.1851 57.8973 53.1996 57.9037 53.2129C57.9135 53.2331 57.9122 53.2478 57.8935 53.2634C57.8794 53.2754 57.8679 53.2922 57.8598 53.3089C57.8556 53.3169 57.8577 53.335 57.8632 53.3391C57.8909 53.3579 57.8858 53.3862 57.8896 53.4121C57.8913 53.4212 57.8931 53.4302 57.8956 53.4439C57.8854 53.4455 57.8739 53.4473 57.8615 53.4493C57.859 53.4671 57.8364 53.4893 57.8594 53.5132L57.8581 53.5207C57.8266 53.5806 57.8496 53.6441 57.8407 53.7054C57.8526 53.7073 57.8598 53.7084 57.8679 53.7096C57.8667 53.7159 57.8675 53.7213 57.865 53.7235C57.8441 53.7424 57.8381 53.7629 57.8535 53.7885C57.8556 53.7924 57.85 53.8012 57.8471 53.8103C57.853 53.8153 57.8624 53.8229 57.8718 53.8303C57.8713 53.8358 57.8722 53.8403 57.8705 53.8437C57.8577 53.8709 57.8505 53.8974 57.8509 53.9293C57.8513 53.9509 57.8496 53.9696 57.8581 53.9906C57.862 53.9997 57.8513 54.0154 57.8449 54.0271C57.8279 54.0595 57.799 54.0902 57.7951 54.1239C57.7883 54.177 57.7474 54.1957 57.7151 54.2208C57.6793 54.2484 57.6355 54.2656 57.5954 54.2881C57.549 54.3141 57.5005 54.3238 57.4468 54.3227C57.3498 54.3206 57.3106 54.2712 57.2995 54.1861C57.2936 54.1387 57.3 54.0898 57.3008 54.0417C57.3017 54.0102 57.3034 53.9788 57.3046 53.9474C57.3119 53.7822 57.3191 53.6171 57.3272 53.4519C57.3323 53.3462 57.3391 53.2405 57.3447 53.1348C57.3472 53.0769 57.3468 53.0189 57.3506 52.9611C57.3562 52.8745 57.3587 52.7872 57.3723 52.7017C57.3864 52.6147 57.4251 52.5324 57.4894 52.472C57.5784 52.3882 57.6849 52.3342 57.816 52.3526C57.8283 52.3544 57.8437 52.3508 57.8547 52.3445C57.8854 52.3274 57.9092 52.3289 57.9433 52.3443C57.982 52.3619 58.0289 52.3653 58.0727 52.3479C58.1447 52.3196 58.2039 52.2767 58.2456 52.2115C58.2507 52.2035 58.2588 52.1973 58.2656 52.1905C58.3039 52.1526 58.3422 52.1148 58.3806 52.077L58.3865 52.0715C58.47 52.0241 58.5487 51.9687 58.6458 51.9477C58.7203 51.9315 58.7923 51.9301 58.8634 51.9596C58.871 51.9628 58.88 51.965 58.8864 51.9698C58.9077 51.9856 58.9332 51.999 58.9481 52.0197C58.9647 52.0435 58.9745 52.0734 58.9822 52.102C58.9886 52.1261 58.989 52.1515 59.0158 52.1587C59.009 52.1776 58.9979 52.1929 59.0005 52.2058C59.0035 52.2232 59.0171 52.2387 59.0299 52.2617C59.0299 52.273 59.0299 52.2938 59.0299 52.317C59.0035 52.3169 58.9984 52.3369 58.9988 52.3616C58.9992 52.386 58.9988 52.4103 58.9988 52.4357C59.0098 52.4339 59.0162 52.4327 59.0256 52.4311C59.0269 52.4623 59.0213 52.4921 59.0196 52.5221C59.0179 52.5542 59.0235 52.5867 59.026 52.62C58.986 52.6331 58.9826 52.6484 59.0184 52.6811C58.9984 52.6948 58.9817 52.7108 59.0081 52.7302C59.0018 52.7408 58.9924 52.7493 58.992 52.7581C58.9907 52.8268 58.9898 52.8957 58.9911 52.9645C58.9911 52.978 59.0009 52.9914 59.0073 53.0071C58.9954 53.0207 58.9834 53.037 58.9966 53.0591C58.9988 53.0626 58.9971 53.0693 58.9954 53.0739C58.9852 53.0981 58.9903 53.1168 59.0115 53.1249C59.0115 53.1417 59.0115 53.1547 59.0111 53.1675C59.0111 53.1765 59.0098 53.1855 59.009 53.1944C59.0081 53.2062 59.0069 53.2179 59.0064 53.2297C59.0064 53.243 59.0107 53.2563 58.9971 53.2676C58.9915 53.2719 58.9915 53.2849 58.9928 53.2935C58.9932 53.2966 59.0039 53.2983 59.0103 53.3007C59.0035 53.3157 58.9945 53.3303 58.9911 53.346C58.9898 53.3511 59.0026 53.3592 59.0115 53.3685C58.9945 53.3773 58.9954 53.3926 58.9954 53.41C58.9954 53.4264 58.9873 53.4428 59.0098 53.4505L59.0137 53.457C59.0001 53.4859 59.0286 53.4935 59.0431 53.5092C59.0388 53.516 59.0362 53.5226 59.0316 53.5272C59.0162 53.5423 59.0077 53.5545 59.0392 53.5594C59.0426 53.5599 59.0443 53.5725 59.0473 53.5794C59.0537 53.5957 59.0533 53.6164 59.0767 53.6215C59.0818 53.6226 59.0861 53.6269 59.0899 53.6308C59.1295 53.6748 59.1525 53.6829 59.2066 53.6617C59.2768 53.6341 59.3462 53.6052 59.4139 53.5725C59.4969 53.5325 59.577 53.4875 59.6587 53.4453C59.7217 53.4128 59.7835 53.3775 59.8546 53.3637C59.9176 53.3515 59.9793 53.3541 60.0419 53.3653C60.0619 53.3689 60.0836 53.3644 60.1032 53.3695C60.1237 53.375 60.1462 53.3836 60.1611 53.3976C60.2003 53.4336 60.2267 53.4789 60.2429 53.5296C60.2446 53.5353 60.2497 53.5399 60.2535 53.545C60.2535 53.5505 60.2535 53.556 60.2535 53.5615C60.2352 53.5781 60.2318 53.5947 60.2535 53.6112C60.2535 53.6168 60.2535 53.6223 60.2535 53.6278Z" fill="black"/>
<path fill-rule="evenodd" clip-rule="evenodd" d="M53.7206 55.0447C53.6988 55.0583 53.6942 55.086 53.6942 55.11C53.6942 55.1592 53.6814 55.2075 53.6899 55.2577C53.695 55.2862 53.6835 55.3172 53.6818 55.3471C53.6763 55.464 53.6678 55.5811 53.6695 55.6979C53.6699 55.7399 53.6567 55.7782 53.6567 55.819C53.6563 55.8588 53.6563 55.8998 53.6477 55.9383C53.6307 56.0115 53.6001 56.0788 53.5439 56.1329C53.4596 56.2133 53.3544 56.2635 53.2569 56.2811C53.2054 56.2904 53.1513 56.2622 53.1215 56.2103C53.1023 56.1765 53.0887 56.1403 53.0883 56.1006C53.0883 56.0509 53.0921 56.0008 53.0862 55.9518C53.0802 55.904 53.0985 55.8599 53.0981 55.8138C53.0977 55.7612 53.1109 55.7093 53.0942 55.6553C53.0862 55.6278 53.1011 55.5937 53.1045 55.5625C53.1062 55.5467 53.1087 55.5299 53.1053 55.5149C53.0977 55.4795 53.1109 55.4455 53.1087 55.4108L53.1096 55.4068C53.1062 55.3617 53.1121 55.3187 53.1296 55.2759C53.1381 55.2554 53.1338 55.2299 53.1355 55.2066C53.1398 55.1517 53.1449 55.0969 53.1487 55.0419C53.1521 54.9938 53.1539 54.9456 53.1564 54.8975C53.1615 54.8039 53.1649 54.7102 53.1726 54.6168C53.179 54.5395 53.1969 54.4637 53.2318 54.394C53.2684 54.3213 53.3301 54.2715 53.4025 54.2344C53.474 54.1976 53.5515 54.1817 53.6316 54.1734C53.6839 54.168 53.7346 54.1521 53.7814 54.1263C53.8074 54.1122 53.8368 54.1047 53.8636 54.0929C53.8921 54.0805 53.9198 54.0664 53.9479 54.0532C53.9905 54.0333 54.0335 54.0137 54.082 54.0137C54.1314 54.0137 54.1727 54.0283 54.1966 54.0748C54.2132 54.1065 54.2311 54.1374 54.2451 54.1701C54.2519 54.1858 54.2506 54.2048 54.2519 54.2225C54.2523 54.2291 54.2477 54.2361 54.2481 54.2427C54.2545 54.343 54.1855 54.3983 54.1174 54.4532C54.0697 54.4915 54.0211 54.5287 53.9718 54.5644C53.893 54.6209 53.8393 54.6977 53.7874 54.7761C53.7746 54.7957 53.7623 54.8158 53.7657 54.8414C53.7665 54.8469 53.7606 54.8531 53.7584 54.8591C53.7546 54.8688 53.7504 54.8785 53.7474 54.8885C53.7397 54.9181 53.7393 54.949 53.7257 54.9781C53.7176 54.995 53.7223 55.0177 53.7206 55.0447Z" fill="black"/>
<path fill-rule="evenodd" clip-rule="evenodd" d="M52.7249 54.8516C52.6963 54.8684 52.6895 54.8814 52.6997 54.9165C52.7061 54.9387 52.7176 54.9595 52.7223 54.9807C52.7227 55.0002 52.7249 55.0198 52.7236 55.0392C52.7223 55.0537 52.7193 55.0689 52.7129 55.082C52.7036 55.1025 52.6993 55.1222 52.7002 55.1454C52.701 55.1766 52.6938 55.2079 52.6908 55.2393C52.6861 55.2841 52.6814 55.3288 52.6601 55.3697C52.6576 55.3742 52.6584 55.3805 52.658 55.386C52.6572 55.4451 52.6584 55.5042 52.655 55.5632C52.6533 55.5953 52.6487 55.6288 52.6363 55.6582C52.6265 55.6828 52.6274 55.7061 52.6257 55.7305C52.6235 55.7604 52.6193 55.7902 52.6146 55.8199C52.6099 55.851 52.6035 55.8819 52.5988 55.9131C52.5899 55.9797 52.5797 56.0464 52.5733 56.1134C52.5695 56.1524 52.5746 56.1922 52.5716 56.2314C52.5673 56.2869 52.5827 56.3424 52.5618 56.3984C52.5477 56.4362 52.549 56.4795 52.5422 56.5201C52.5401 56.5346 52.5337 56.5485 52.5299 56.5629C52.5265 56.5757 52.5243 56.5889 52.5209 56.6053C52.5354 56.6066 52.5456 56.6075 52.5605 56.6089C52.5567 56.6234 52.5537 56.636 52.5503 56.6495C52.5384 56.6495 52.529 56.6495 52.5167 56.6495C52.5086 56.6629 52.5056 56.6878 52.4775 56.6771L52.4643 56.6854C52.4094 56.7433 52.3442 56.787 52.2731 56.8242C52.2386 56.8425 52.2041 56.8517 52.1654 56.8483C52.0875 56.8414 52.0398 56.8 52.0364 56.7232C52.0321 56.6367 52.0343 56.5498 52.0364 56.4631C52.0385 56.3818 52.0445 56.3007 52.0479 56.2195C52.0509 56.1483 52.0487 56.0771 52.0641 56.0065C52.0713 55.9741 52.0645 55.9388 52.0645 55.9049C52.0645 55.897 52.0636 55.8859 52.0679 55.8819C52.0849 55.8671 52.0781 55.8485 52.079 55.8315C52.0841 55.7504 52.0883 55.6693 52.0922 55.5883C52.0947 55.5378 52.096 55.4872 52.0977 55.4368C52.0977 55.4312 52.0973 55.4257 52.0977 55.4202C52.1049 55.3393 52.1122 55.2583 52.1203 55.1774C52.1292 55.0863 52.1552 55 52.1939 54.9167C52.231 54.8366 52.2876 54.7752 52.3608 54.7255C52.4085 54.693 52.4575 54.6653 52.5133 54.6494C52.5422 54.6412 52.5703 54.6394 52.6005 54.6434C52.6363 54.6482 52.6614 54.6676 52.6763 54.6956C52.6929 54.7262 52.7057 54.759 52.7031 54.7967C52.7019 54.8143 52.7172 54.833 52.7249 54.8516Z" fill="black"/>
<path fill-rule="evenodd" clip-rule="evenodd" d="M57.0347 53.1003C57.0377 53.1196 57.0062 53.1258 57.0233 53.1469C57.036 53.1627 57.0169 53.178 57.0173 53.1948C57.0181 53.2113 57.0096 53.2277 57.0088 53.2444C57.0075 53.2772 57.0075 53.3102 57.0092 53.343C57.0101 53.3593 57.022 53.3782 57.0169 53.391C57.0032 53.423 57.0139 53.4544 57.0118 53.4858C57.0096 53.5149 57.0118 53.5444 57.0122 53.5737C57.0126 53.6213 57.0113 53.6691 57.0152 53.7165C57.016 53.73 57.0126 53.738 57.0058 53.7451C56.9866 53.7651 56.9858 53.7907 56.9841 53.8147C56.9832 53.8366 56.9798 53.8623 57.0079 53.8756C57.0139 53.8785 57.0156 53.8901 57.0194 53.8977L57.0113 53.9041C57.0028 53.9008 56.9943 53.8976 56.9785 53.8915C56.9896 53.9149 56.9986 53.9326 57.0075 53.9514C57.0003 53.9508 56.9913 53.95 56.9802 53.949C56.9768 53.9725 56.9722 53.9953 56.9709 54.0184C56.9666 54.1022 56.9632 54.1861 56.9594 54.27C56.9594 54.2755 56.9573 54.2824 56.9598 54.2863C56.9781 54.314 56.9658 54.3429 56.9666 54.3718C56.9675 54.4345 56.9326 54.4805 56.8976 54.524C56.8683 54.5608 56.8338 54.596 56.7882 54.6179C56.7295 54.6463 56.6762 54.6859 56.612 54.7032C56.5698 54.7146 56.5285 54.7119 56.4898 54.6928C56.4391 54.6677 56.4212 54.6204 56.4216 54.5689C56.4221 54.4988 56.4276 54.4287 56.434 54.3587C56.4434 54.2518 56.4553 54.1452 56.4659 54.0384C56.4774 53.9192 56.4876 53.7999 56.5004 53.6809C56.5191 53.5127 56.5396 53.3447 56.5592 53.1766C56.5621 53.148 56.566 53.1194 56.5681 53.0907C56.5728 53.016 56.6005 52.9482 56.6358 52.8841C56.6741 52.8137 56.7333 52.7603 56.8048 52.7223C56.8546 52.6959 56.9096 52.6945 56.9641 52.6989C57.0028 52.7021 57.0271 52.725 57.0271 52.759C57.0267 52.7877 57.0382 52.8118 57.0501 52.8342C57.0671 52.8666 57.0628 52.8959 57.0556 52.9285C57.0479 52.9626 57.0347 52.9956 57.0428 53.0332C57.0475 53.054 57.0313 53.0788 57.0347 53.1003Z" fill="black"/>
<path fill-rule="evenodd" clip-rule="evenodd" d="M52.8229 53.4188C52.8834 53.4177 52.9051 53.4321 52.9221 53.4768C52.9277 53.4909 52.9319 53.506 52.9396 53.5188C52.9737 53.5754 52.9617 53.6342 52.9417 53.6894C52.9298 53.7228 52.9009 53.7501 52.8791 53.7802L52.8757 53.7823C52.8349 53.8508 52.7663 53.8876 52.7024 53.9293C52.668 53.9519 52.6313 53.9718 52.5943 53.9901C52.5436 54.0154 52.4934 53.9965 52.4546 53.9687C52.4197 53.9438 52.4001 53.9012 52.4001 53.8538C52.4001 53.8172 52.407 53.7827 52.4223 53.7498C52.4406 53.7119 52.4491 53.6693 52.4785 53.6371C52.4989 53.6147 52.5177 53.5901 52.5407 53.5712C52.5879 53.5328 52.636 53.4948 52.6875 53.462C52.731 53.4342 52.7808 53.4184 52.8229 53.4188Z" fill="black"/>
<path fill-rule="evenodd" clip-rule="evenodd" d="M56.6886 52.1787C56.7643 52.2094 56.8418 52.2284 56.9163 52.1726C56.9206 52.1694 56.927 52.169 56.9313 52.1658C56.9713 52.1366 57.0156 52.113 57.0428 52.0681C57.0611 52.0378 57.0892 52.0132 57.1105 51.9845C57.1514 51.9292 57.1842 51.8726 57.1705 51.7975C57.1641 51.7617 57.139 51.7408 57.1275 51.71C57.1079 51.7076 57.0918 51.7084 57.0781 51.7032C57.033 51.6863 56.9879 51.6892 56.9423 51.6996C56.8533 51.7198 56.7788 51.7661 56.7192 51.8316C56.6464 51.912 56.5983 52.0023 56.6379 52.1166C56.6477 52.1451 56.6634 52.1685 56.6886 52.1787Z" fill="black"/>
<path fill-rule="evenodd" clip-rule="evenodd" d="M57.1277 51.709C57.1391 51.7399 57.1643 51.7607 57.1707 51.7965C57.1843 51.8716 57.1515 51.9282 57.1106 51.9835C57.0893 52.0123 57.0612 52.0368 57.0429 52.0671C57.0157 52.112 56.9714 52.1357 56.9314 52.1649C56.9271 52.168 56.9207 52.1684 56.9165 52.1717C56.842 52.2274 56.7645 52.2084 56.6887 52.1777C56.6636 52.1675 56.6478 52.1441 56.638 52.1156C56.5984 52.0013 56.6465 51.9111 56.7193 51.8306C56.7789 51.7651 56.8535 51.7188 56.9424 51.6986C56.988 51.6882 57.0331 51.6853 57.0783 51.7023C57.0919 51.7075 57.1081 51.7066 57.1277 51.709Z" fill="black"/>
<path fill-rule="evenodd" clip-rule="evenodd" d="M62.7032 55.7178C62.6866 55.943 62.6606 56.1697 62.6257 56.3936C62.8646 53.3529 61.4668 50.3145 58.916 48.5708C56.1634 46.6892 52.4873 46.5894 49.5938 48.2313C52.3651 46.3689 56.1038 46.2644 58.9266 48.083C61.4927 49.7361 62.9259 52.7169 62.7032 55.7178C62.7334 55.3119 62.6866 55.943 62.7032 55.7178ZM61.3273 55.4256C61.074 58.0982 59.1529 60.4303 56.5447 61.2284C56.3842 61.2777 56.2198 61.3201 56.0563 61.3576C54.9804 61.6117 53.8031 61.5916 52.7391 61.2937C52.3083 61.1814 51.8872 61.0219 51.4887 60.825C51.2417 60.7041 51.0029 60.5675 50.7721 60.4185C50.7529 60.4056 50.5056 60.2454 50.5056 60.2356V60.2356C50.4144 60.1232 50.2386 60.0447 50.1279 59.9421C50.2003 60.0021 50.0381 59.8703 50.0019 59.8347V59.8347C48.5862 58.5981 47.7449 56.8067 47.7002 54.9463C47.5826 50.0588 52.9035 46.6259 57.4069 48.6903C59.9955 49.8769 61.5939 52.625 61.3273 55.4256C61.4977 53.6381 61.3163 55.5413 61.3273 55.4256ZM57.7109 61.8191C53.0436 64.5756 46.3209 60.393 46.8959 55.0437C46.9134 60.2289 53.0278 64.009 57.7747 61.7815C57.7539 61.7944 57.7322 61.8065 57.7109 61.8191C57.7322 61.8065 57.6538 61.8529 57.7109 61.8191ZM62.9891 52.6031C61.9396 48.6813 58.1213 45.9506 54.0105 46.1879C51.2353 46.3481 48.6428 47.8515 47.1505 50.1607C45.1934 53.1896 45.3666 57.1934 47.5882 60.0437C49.9452 63.0675 54.1625 64.2301 57.7628 62.81C61.8132 61.2124 64.1046 56.7653 62.9891 52.6031C63.2501 53.5772 62.9534 52.469 62.9891 52.6031Z" fill="black"/>
</svg>
