<svg width="108" height="109" viewBox="0 0 108 109" fill="none" xmlns="http://www.w3.org/2000/svg">
<path fill-rule="evenodd" clip-rule="evenodd" d="M68.5767 40.6727C68.1135 40.3021 67.5482 40.0089 66.8948 39.8013C66.4156 39.6476 65.9088 39.5706 65.3899 39.5706C64.652 39.5796 63.4142 39.7393 62.5832 40.7132C62.2065 41.1539 62.0674 41.7871 62.2221 42.3657C62.3518 42.852 62.6674 43.2113 63.1135 43.3806C63.1135 43.3806 63.2549 43.4337 63.4777 43.4746C63.4138 43.6 63.2592 43.8197 63.2592 43.8197C62.9732 44.2474 62.3347 44.8071 60.5811 44.8071C59.5518 44.747 58.7835 44.5025 57.8847 43.3303C57.3276 42.604 57.0448 41.3842 57.0038 39.3768C56.968 38.3697 56.8313 37.4971 56.5928 36.7967C56.4327 36.327 56.0575 35.834 55.6971 35.5986C55.3863 35.3958 55.1163 35.2303 54.5833 35.0574C53.9837 34.8628 53.2217 34.8332 52.6498 34.8207C51.9064 34.8038 51.4985 34.9768 51.2394 35.2928C51.1961 35.3459 51.1872 35.3714 51.1287 35.3671C50.9944 35.3564 50.6936 35.3576 50.6036 35.3576C50.1801 35.3576 49.8026 35.4265 49.445 35.5019C48.6899 35.6619 48.2231 35.9783 47.8094 36.3128C47.6174 36.4677 47.2516 36.9025 47.1682 37.3663C47.098 37.7585 47.1697 37.9775 47.2496 38.1712C47.2628 38.2039 47.3131 38.2633 47.3228 38.2982C47.5492 38.0593 47.9247 37.8733 48.6342 37.8702C49.427 37.867 50.5112 38.2326 50.8915 38.8516C51.433 39.7341 51.3248 40.4483 51.211 41.2969C50.9188 43.471 50.1213 44.6 48.3487 44.8487C48.0416 44.892 47.7385 44.9136 47.4479 44.9136C46.2031 44.9136 45.2958 44.5159 44.8302 43.7588C44.7052 43.5552 44.6904 43.4892 44.6904 43.4892C44.6904 43.4892 44.8298 43.4549 44.9517 43.3967C45.4232 43.1731 45.7777 42.8426 45.907 42.3324C46.0504 41.7647 45.9051 41.1276 45.5358 40.709C44.8691 39.9503 43.9443 39.5662 42.7856 39.5662C42.1425 39.5662 41.5728 39.6893 41.2078 39.7923C39.7495 40.2046 38.5862 41.3186 37.6523 43.1986C36.9912 44.5284 36.5292 46.2842 36.3518 48.1451C36.1753 49.9681 36.2622 51.5082 36.3822 52.9013C36.5809 55.2196 36.9647 56.6084 37.5191 58.0961C38.0895 59.635 38.7888 61.1035 39.5617 62.3786C39.8146 62.7953 40.0004 63.1003 40.1025 63.2395C40.2513 63.083 40.3865 62.9391 40.5965 62.7276C40.9 62.4218 41.7606 61.2867 42.0045 60.9368C42.2511 60.5846 42.7045 59.8763 42.9415 59.3665L43.0712 59.0871L43.3112 59.2781C43.5683 59.4832 43.7175 59.8397 43.7113 60.234C43.7066 60.58 43.6271 60.9825 43.4171 61.7206C43.1881 62.5209 42.7899 63.4792 42.3244 64.3487C42.2675 64.4541 42.2122 64.5555 42.1584 64.6529C41.8533 65.2041 41.724 65.4737 41.8385 65.5955C42.1214 65.6364 42.4814 65.4485 42.8737 65.1459C43.2294 64.8723 44.18 64.0617 45.3258 62.4439C46.1922 61.219 46.8806 60.0293 47.5578 58.5906L47.6575 58.3791L47.8718 58.4699C47.9899 58.5206 48.1 58.6216 48.1671 58.7431C48.2968 58.9798 48.3416 59.2938 48.2968 59.6523C48.19 60.5202 47.6871 61.8331 47.2839 62.7811C46.6005 64.3896 45.3445 66.1922 44.4118 67.4202C44.3752 67.4673 44.15 67.7385 44.1126 67.7857C44.1905 67.8667 44.3802 68.0247 44.6105 68.2141L44.9627 68.5043C46.2421 69.5648 47.4316 70.3808 48.9416 71.2314C50.1081 71.8894 52.4811 73.1048 54.055 73.5293C55.6282 73.1048 58.0016 71.8894 59.1684 71.2314C60.6613 70.3902 61.8882 69.5491 63.1458 68.5043L63.4894 68.222C63.7196 68.031 63.9102 67.8746 63.9916 67.7904C63.9499 67.726 63.8678 67.6285 63.8186 67.5696C63.775 67.5176 63.7325 67.4673 63.6963 67.4202C62.7624 66.189 61.5064 64.3849 60.8238 62.7811C60.4202 61.8314 59.9181 60.5155 59.8136 59.6539C59.768 59.2953 59.8112 58.9798 59.9425 58.7416C59.9975 58.6405 60.0778 58.5717 60.172 58.5136C60.306 58.4299 60.4522 58.3784 60.4522 58.3784L60.5519 58.5906C61.2275 60.0293 61.9159 61.2174 62.7831 62.4439C63.932 64.0633 64.881 64.8738 65.2356 65.1459C65.6345 65.4533 65.986 65.6364 66.176 65.6364C66.3989 65.5051 66.2747 65.2386 65.954 64.6576C65.9002 64.5602 65.8426 64.4556 65.7857 64.3487C65.3198 63.4808 64.9208 62.5224 64.6913 61.7191C64.4829 60.984 64.4034 60.5815 64.3983 60.234C64.3925 59.8397 64.5417 59.4832 64.7977 59.2781L65.0381 59.0871L65.1678 59.3665C65.4214 59.9125 65.8917 60.6318 66.1047 60.9368C66.3467 61.2851 67.2065 62.4187 67.5128 62.7276C67.7219 62.9391 67.8572 63.0815 67.9483 63.1774C68.1057 63.105 68.2826 62.8149 68.5233 62.4187C69.3197 61.1035 70.0194 59.635 70.5905 58.0961C71.1442 56.6091 71.5271 55.2204 71.727 52.9005C71.8466 51.5161 71.9327 49.9815 71.7581 48.1482C71.5973 46.346 71.1106 44.4958 70.4576 43.1994C70.0599 42.4094 69.4865 41.4071 68.5767 40.6727Z" fill="black"/>
</svg>
