<svg width="109" height="110" viewBox="0 0 109 110" fill="none" xmlns="http://www.w3.org/2000/svg">
<path fill-rule="evenodd" clip-rule="evenodd" d="M33.4056 52.0877V53.9661H37.8587C37.7255 55.0226 37.3765 55.7934 36.8451 56.3304C36.1972 56.9843 35.1829 57.7054 33.4056 57.7054C30.6639 57.7054 28.5203 55.4748 28.5203 52.708C28.5203 49.9412 30.6639 47.7114 33.4056 47.7114C34.8839 47.7114 35.9641 48.2981 36.7619 49.0528L38.0744 47.7282C36.9609 46.655 35.4826 45.833 33.4056 45.833C29.6504 45.833 26.4932 48.9184 26.4932 52.708C26.4932 56.4977 29.6504 59.583 33.4056 59.583C35.4327 59.583 36.9609 58.9123 38.1577 57.655C39.387 56.4136 39.7692 54.6704 39.7692 53.2611C39.7692 52.8256 39.7367 52.4231 39.6693 52.0877H33.4056Z" fill="black"/>
<path fill-rule="evenodd" clip-rule="evenodd" d="M45.3356 57.6888C44.0034 57.6888 42.8536 56.5797 42.8536 54.9992C42.8536 53.4034 44.0034 52.3103 45.3356 52.3103C46.6678 52.3103 47.8169 53.4034 47.8169 54.9992C47.8169 56.5797 46.6678 57.6888 45.3356 57.6888ZM45.3356 50.5625C42.9043 50.5625 40.9219 52.4279 40.9219 54.9992C40.9219 57.5544 42.9043 59.4374 45.3356 59.4374C47.7669 59.4374 49.7494 57.5544 49.7494 54.9992C49.7494 52.4279 47.7669 50.5625 45.3356 50.5625Z" fill="black"/>
<path fill-rule="evenodd" clip-rule="evenodd" d="M64.7544 57.6888C63.4222 57.6888 62.4063 56.546 62.4063 54.9999C62.4063 53.4363 63.4222 52.3103 64.7544 52.3103C66.0699 52.3103 67.1024 53.4538 67.1024 55.0167C67.1024 56.5628 66.0699 57.6888 64.7544 57.6888ZM66.9684 51.554H66.9018C66.4689 51.0331 65.6362 50.5625 64.5871 50.5625C62.3889 50.5625 60.4746 52.4951 60.4746 54.9999C60.4746 57.4872 62.3889 59.4374 64.5871 59.4374C65.6362 59.4374 66.4689 58.966 66.9018 58.4283H66.9684V59.0493C66.9684 60.7467 66.0692 61.6542 64.6204 61.6542C63.438 61.6542 62.7046 60.7971 62.4048 60.0744L60.7229 60.7803C61.2066 61.9567 62.4881 63.4027 64.6204 63.4027C66.8852 63.4027 68.801 62.0575 68.801 58.7804V50.7909H66.9684V51.554Z" fill="black"/>
<path fill-rule="evenodd" clip-rule="evenodd" d="M55.1756 57.6891C53.8434 57.6891 52.6943 56.5799 52.6943 54.9994C52.6943 53.4036 53.8434 52.3105 55.1756 52.3105C56.5078 52.3105 57.6569 53.4036 57.6569 54.9994C57.6569 56.5799 56.5078 57.6891 55.1756 57.6891ZM55.1756 50.5627C52.7443 50.5627 50.7619 52.4282 50.7619 54.9994C50.7619 57.5546 52.7443 59.4376 55.1756 59.4376C57.6069 59.4376 59.5894 57.5546 59.5894 54.9994C59.5894 52.4282 57.6069 50.5627 55.1756 50.5627Z" fill="black"/>
<path fill-rule="evenodd" clip-rule="evenodd" d="M70.3144 59.4374H72.2143V46.0166H70.3144V59.4374Z" fill="black"/>
<path fill-rule="evenodd" clip-rule="evenodd" d="M77.9414 52.2257C78.7233 52.2257 79.3857 52.6275 79.6067 53.205L75.6358 54.8657C75.6358 52.9949 76.9468 52.2257 77.9414 52.2257ZM78.0845 57.6898C77.102 57.6898 76.4026 57.236 75.9522 56.3454L81.8314 53.891L81.6315 53.3868C81.2652 52.3953 80.1494 50.5635 77.868 50.5635C75.6025 50.5635 73.7207 52.3617 73.7207 55.0001C73.7207 57.4881 75.5858 59.4376 78.0845 59.4376C80.0995 59.4376 81.2652 58.194 81.7489 57.4713L80.2493 56.4622C79.7498 57.2024 79.067 57.6898 78.0845 57.6898Z" fill="black"/>
</svg>
