<svg width="108" height="110" viewBox="0 0 108 110" fill="none" xmlns="http://www.w3.org/2000/svg">
<g clip-path="url(#clip0_2603_736)">
<path d="M25.9087 52.046L31.2245 48.6307L32.0066 48.1273V47.3611L29.3422 49.0874L26.4283 50.9666C25.4484 51.5949 25.0471 52.3331 24.9251 52.9316C25.2051 52.5864 25.537 52.2876 25.9087 52.046ZM32.0066 51.1717V50.4129L26.2009 54.2179C25.4373 54.7772 24.9325 55.5509 24.9325 56.5259C24.9322 56.9455 25.0278 57.3595 25.2118 57.7359C25.3959 58.1122 25.6635 58.4407 25.9938 58.6959L32.0084 62.6389V59.3279L27.2344 56.3096C27.0806 56.2055 26.9547 56.0648 26.8676 55.9C26.7805 55.7351 26.7351 55.5512 26.7352 55.3644C26.7344 55.1796 26.7794 54.9974 26.8663 54.8346C26.9532 54.6718 27.0791 54.5335 27.2326 54.4323L32.0066 51.1717ZM26.2342 52.6053C25.3337 53.1814 24.9917 53.8078 24.9399 54.5367C25.2857 54.1247 25.69 53.7666 26.1399 53.4741L32.0066 49.6504V48.8823L26.2342 52.6053Z" fill="black"/>
<path d="M79.1489 58.3138H80.1288V52.857L79.1489 53.4928V58.3138ZM76.9561 51.6863H82.3198V52.6389H76.9561V51.6863Z" fill="black"/>
<path d="M37.446 52.5606C37.8118 52.5526 38.1738 52.6367 38.4992 52.8053C38.8246 52.974 39.1032 53.2217 39.3098 53.5263L39.3819 53.6344L40.1972 53.0751L40.1325 52.9688C39.613 52.1169 38.585 51.5874 37.446 51.5874C35.4824 51.5874 34.0551 53.0192 34.0551 54.9916C34.0551 56.964 35.4806 58.4051 37.446 58.4051C37.9656 58.4188 38.4806 58.3032 38.9453 58.0684C39.41 57.8337 39.8102 57.487 40.1103 57.0591L40.1788 56.9547L39.3837 56.3637L39.3079 56.4774C39.1027 56.7829 38.8242 57.031 38.4984 57.1989C38.1725 57.3668 37.8099 57.4488 37.4442 57.4375C36.0704 57.4375 35.0757 56.4122 35.0757 54.999C35.0757 53.5859 36.0723 52.5606 37.446 52.5606ZM43.346 51.6862L40.6669 58.2559L40.6465 58.3081H41.6801L42.3864 56.5408H45.3447L46.0621 58.3137H47.1178L44.4202 51.6862H43.346ZM42.7765 55.5881L43.8655 52.8849L44.9583 55.5881H42.7765ZM54.656 51.6862L51.9769 58.2559L51.9565 58.3081H52.9901L53.7019 56.5352H56.6602L57.3628 58.3137H58.4186L55.7191 51.6862H54.656ZM54.0884 55.5881L55.1811 52.8849L56.2738 55.5881H54.0884ZM61.9852 51.6862H59.4706V58.3137H60.4561V55.7541H61.9852C63.4643 55.7541 64.3463 54.9953 64.3463 53.722C64.3463 52.4487 63.4643 51.6862 61.9852 51.6862ZM61.963 54.8052H60.4561V52.6389H61.963C62.8745 52.6389 63.3349 53.0117 63.3349 53.722C63.3349 54.4323 62.8801 54.8052 61.9686 54.8052H61.963Z" fill="black"/>
<path d="M73.726 51.731L72.7405 52.3685V58.269H77.3795V57.3163H73.726V51.731Z" fill="black"/>
<path d="M70.0942 55.5492C70.0942 56.6938 69.4582 57.3519 68.347 57.3519C67.2358 57.3519 66.6071 56.6938 66.6071 55.5492V51.6882L65.6272 52.324V55.6032C65.6272 57.2494 66.6977 58.312 68.3544 58.312C70.011 58.312 71.0853 57.2494 71.0853 55.6032V51.6882L70.0998 52.3258L70.0942 55.5492Z" fill="black"/>
<path d="M49.0643 58.3138H50.0461V52.857L49.0643 53.4928V58.3138ZM46.8733 51.6863H52.2371V52.6389H46.8733V51.6863Z" fill="black"/>
</g>
<defs>
<clipPath id="clip0_2603_736">
<rect width="57.3986" height="15.2778" fill="white" transform="translate(24.9231 47.3611)"/>
</clipPath>
</defs>
</svg>
