<svg width="108" height="110" viewBox="0 0 108 110" fill="none" xmlns="http://www.w3.org/2000/svg">
<path d="M71.2056 54.5578V49.5785C71.2056 49.4691 71.2287 49.4473 71.3446 49.4473H73.9353C74.0394 49.4473 74.0625 49.4691 74.0625 49.5673V54.3176C74.0738 54.3395 74.0856 54.3614 74.0856 54.3832L74.1548 54.3507C74.2246 54.2739 74.282 54.1975 74.3517 54.11C74.7102 53.6954 75.0569 53.2803 75.4153 52.8656C75.462 52.8 75.5194 52.7781 75.6123 52.7781H78.4574C78.4805 52.7781 78.5035 52.7888 78.5153 52.8107C78.5266 52.8218 78.5035 52.8544 78.4917 52.8651C78.3184 53.0727 78.1333 53.2696 77.9599 53.4766C77.4282 54.0882 76.8958 54.7109 76.3641 55.3224C76.2369 55.475 76.1097 55.617 75.9707 55.7696C75.9246 55.8246 75.9246 55.8571 75.9707 55.9121C76.3523 56.3379 76.7338 56.7749 77.1158 57.2003C77.5897 57.7355 78.0523 58.26 78.5153 58.7947C78.7348 59.046 78.9661 59.2973 79.1861 59.5482C79.1974 59.5705 79.2092 59.5919 79.2092 59.6138C79.1861 59.625 79.163 59.6357 79.1394 59.6357H76.0399C76.013 59.6364 75.9863 59.6309 75.9621 59.6195C75.938 59.6082 75.9171 59.5913 75.9015 59.5705C75.4271 59.0353 74.9646 58.4894 74.4902 57.9542C74.3861 57.8341 74.282 57.7248 74.1897 57.6042C74.1666 57.5828 74.1317 57.5716 74.1087 57.5503C74.0969 57.5828 74.0856 57.6047 74.0856 57.6378V59.5375C74.0856 59.625 74.0738 59.6357 73.9584 59.6357H71.3676C71.2174 59.6357 71.2174 59.6357 71.2174 59.4937C71.2056 57.8555 71.2056 56.2066 71.2056 54.5578ZM58.542 59.7669C58.1816 59.7734 57.8224 59.7255 57.4779 59.625C57.1254 59.5266 56.7901 59.3793 56.483 59.188C56.1161 58.9561 55.7853 58.6768 55.5 58.3582C55.2699 58.0968 55.0792 57.8064 54.9333 57.4953C54.6676 56.895 54.5866 56.2616 54.6441 55.6282C54.6718 55.3071 54.7458 54.9911 54.8641 54.689C55.0605 54.1757 55.3728 53.728 55.7779 53.3347C56.1116 53.021 56.4985 52.7627 56.9225 52.5705C57.1307 52.483 57.362 52.4174 57.5933 52.363C58.0446 52.2648 58.4958 52.2317 58.9466 52.2648C59.2366 52.2882 59.5234 52.3393 59.8025 52.4174C60.0867 52.4964 60.3587 52.6103 60.6117 52.7562C60.9707 52.9526 61.2712 53.2146 61.5487 53.4985C61.8035 53.761 62.0112 54.0444 62.1733 54.3507C62.3005 54.6015 62.4046 54.8635 62.4625 55.1479C62.5779 55.6389 62.5779 56.1415 62.5087 56.6437C62.4584 56.9608 62.361 57.2696 62.2194 57.5609C61.861 58.2925 61.283 58.8278 60.5887 59.2643C60.2735 59.4479 59.9303 59.5843 59.5712 59.6687C59.2241 59.7232 58.9005 59.7669 58.542 59.7669ZM58.6574 54.8961C58.4266 54.8961 58.2061 54.9398 58.0097 55.0492C57.7092 55.213 57.5358 55.475 57.4661 55.792C57.42 56.0214 57.443 56.2616 57.5241 56.491C57.6282 56.7749 57.8364 56.9494 58.1369 57.015C58.403 57.0807 58.6805 57.0807 58.9584 57.0257C59.3169 56.9606 59.5594 56.7637 59.6523 56.4361C59.7564 56.0978 59.7564 55.7482 59.6061 55.4206C59.5643 55.3206 59.4987 55.231 59.4143 55.159C59.33 55.087 59.2293 55.0345 59.1199 55.0055C58.9697 54.951 58.8076 54.9287 58.6574 54.8961ZM28.8533 56.1084C28.8651 56.3491 28.8071 56.6981 28.703 57.0369C28.5646 57.4841 28.3441 57.8779 28.0435 58.2488C27.7707 58.5831 27.4474 58.8774 27.0841 59.1223C26.8334 59.286 26.5659 59.4251 26.2856 59.5375C25.7189 59.745 25.1292 59.8107 24.5394 59.7669C24.195 59.7382 23.8565 59.6646 23.5333 59.5482C22.7584 59.2643 22.1687 58.784 21.6594 58.1832C21.4536 57.9359 21.2898 57.6597 21.1738 57.3646C21.0697 57.1021 20.9892 56.8293 20.9543 56.5455C20.9194 56.2723 20.8964 55.9884 20.9194 55.7157C20.9543 55.3331 21.0353 54.9622 21.1969 54.6015C21.4512 54.0012 21.8789 53.5097 22.3882 53.0946C22.6665 52.8733 22.9784 52.6931 23.3133 52.5598C23.9492 52.2973 24.6205 52.2317 25.303 52.2866C25.6147 52.3106 25.9217 52.373 26.2164 52.4723C26.6855 52.6322 27.1174 52.8769 27.4882 53.1928C27.8465 53.4868 28.1479 53.8378 28.3789 54.2301C28.4948 54.4377 28.5871 54.6453 28.6682 54.8635C28.8066 55.2023 28.8533 55.5951 28.8533 56.1084ZM23.7184 56.0103C23.7184 56.054 23.7297 56.1415 23.7415 56.229C23.7994 56.6218 24.0189 56.895 24.4235 56.9932C24.7825 57.0807 25.141 57.0914 25.4876 56.9606C25.7538 56.8619 25.9271 56.6655 25.9969 56.4142C26.0774 56.1522 26.0774 55.8902 26.02 55.617C25.9159 55.2135 25.6266 54.9948 25.2451 54.9403C24.9441 54.8966 24.6435 54.8966 24.3425 54.9948C24.1454 55.0593 23.978 55.1866 23.8687 55.355C23.7415 55.5407 23.7184 55.7482 23.7184 56.0103ZM33.3984 59.7669C33.0517 59.7776 32.6933 59.7232 32.3343 59.625C31.9732 59.5254 31.6302 59.3744 31.3169 59.1773C30.8071 58.8637 30.37 58.455 30.0323 57.9761C29.8507 57.7151 29.7069 57.4323 29.6046 57.1351C29.4425 56.6543 29.3964 56.1629 29.4312 55.6719C29.4543 55.3331 29.5353 55.0166 29.6507 54.6997C29.8589 54.1757 30.183 53.728 30.5994 53.324C30.9348 53.0071 31.3046 52.7455 31.7441 52.5705C32.0667 52.4416 32.4045 52.3498 32.7502 52.2973C33.063 52.2536 33.3861 52.2317 33.6989 52.2648C33.9071 52.2755 34.1148 52.3192 34.323 52.363C34.4851 52.3955 34.6471 52.4393 34.8092 52.4942C35.0056 52.5705 35.2138 52.6575 35.3989 52.7669C35.8266 52.9964 36.1733 53.3128 36.4861 53.6735C36.7405 53.9681 36.9487 54.285 37.0871 54.6346C37.315 55.1824 37.4024 55.7737 37.342 56.3598C37.2959 56.7637 37.203 57.157 37.0179 57.5284C36.7654 58.0349 36.4027 58.4852 35.9538 58.8496C35.623 59.1338 35.2438 59.3628 34.8323 59.5268C34.3753 59.695 33.8885 59.7766 33.3984 59.7669ZM33.4907 57.0588C33.5369 57.0588 33.5835 57.0476 33.6415 57.0476C33.8497 57.0257 34.0466 56.982 34.2082 56.8619C34.4046 56.72 34.5087 56.5236 34.5548 56.2941C34.601 56.0103 34.601 55.7371 34.4974 55.4643C34.3815 55.1581 34.1384 54.9948 33.8153 54.9403C33.5025 54.8854 33.1902 54.8854 32.8779 54.9841C32.5661 55.0823 32.3692 55.2893 32.2882 55.5951C32.2187 55.8457 32.2187 56.1091 32.2882 56.3598C32.3343 56.5455 32.4266 56.6981 32.5892 56.8182C32.8548 57.0257 33.1666 57.0476 33.4907 57.0588Z" fill="black"/>
<path d="M82.4132 59.7568C82.0548 59.7675 81.6963 59.713 81.3491 59.6255C80.9871 59.5282 80.6437 59.3771 80.3317 59.1778C79.8208 58.8575 79.3808 58.4456 79.0363 57.9654C78.8516 57.7117 78.711 57.4316 78.6199 57.1357C78.3999 56.4911 78.3768 55.8475 78.5158 55.1917C78.6081 54.7877 78.7702 54.4057 79.0014 54.045C79.2558 53.6522 79.5568 53.3027 79.9384 53.0076C80.2262 52.782 80.5503 52.6015 80.8984 52.4729C81.4881 52.2541 82.1009 52.1997 82.7255 52.2216C83.0538 52.2351 83.3795 52.2827 83.6968 52.3635C84.1594 52.4947 84.5758 52.7018 84.946 52.9857C85.3325 53.2894 85.6543 53.6601 85.8943 54.078C86.0214 54.3075 86.1486 54.5476 86.2527 54.7877C86.3568 55.0391 86.4148 55.3118 86.4148 55.585C86.4148 55.6725 86.3917 55.6943 86.2994 55.705C86.0332 55.7595 85.7558 55.8144 85.4896 55.8688C85.2466 55.9126 85.0153 55.967 84.7727 56.0108C84.5296 56.0652 84.2866 56.109 84.044 56.1634C83.8009 56.2184 83.5696 56.2621 83.3271 56.3166C83.0722 56.371 82.8066 56.4259 82.5522 56.4804C82.3209 56.5241 82.0896 56.5786 81.8578 56.6223L81.5112 56.6879C81.4881 56.6879 81.465 56.7098 81.465 56.7205C81.4763 56.7424 81.4881 56.775 81.5112 56.7861C81.6266 56.8736 81.7537 56.9611 81.8696 57.0486C82.0896 57.212 82.3322 57.2232 82.5866 57.2013C82.9337 57.1682 83.1999 57.0044 83.4081 56.7424C83.5117 56.6111 83.5117 56.6111 83.6625 56.7098L84.5296 57.2338C84.9112 57.4633 85.3045 57.7034 85.6861 57.9329C85.8132 58.0092 85.8132 58.0092 85.7091 58.1186C85.4548 58.3694 85.2235 58.6314 84.9578 58.872C84.8071 59.014 84.6455 59.1341 84.4604 59.2322C84.2433 59.3539 84.0148 59.4562 83.7778 59.538C83.4088 59.6579 83.0227 59.7241 82.6327 59.7344C82.5635 59.7675 82.4825 59.7568 82.4132 59.7568ZM82.4825 54.7109C82.3553 54.7333 82.2168 54.7333 82.0896 54.777C81.8263 54.8518 81.5978 55.0096 81.4419 55.2243C81.3609 55.3229 81.303 55.443 81.245 55.5524C81.2337 55.5738 81.245 55.6068 81.245 55.6287C81.245 55.6394 81.2799 55.6394 81.2912 55.6394C81.5573 55.585 81.8117 55.5305 82.0779 55.4756L82.8409 55.3118C83.003 55.2792 83.1532 55.2466 83.3153 55.2029C83.3845 55.181 83.3963 55.1591 83.3502 55.1154C83.1071 54.8752 82.8296 54.7216 82.4825 54.7109ZM15.9004 55.0833C15.9004 53.6308 15.8891 52.189 15.9004 50.737C15.9004 50.3111 16.1204 49.9723 16.4902 49.7322C16.7681 49.5465 17.0799 49.4809 17.4158 49.4809H21.2902C21.5097 49.4702 21.4866 49.492 21.4866 49.6777V51.7306C21.4866 51.8507 21.4753 51.8725 21.3363 51.8725H19.4394C19.3122 51.8725 19.185 51.8832 19.0809 51.927C18.8502 52.0038 18.7686 52.2002 18.7573 52.4077C18.7455 52.7354 18.7455 53.063 18.7455 53.38V53.5652C18.7455 53.6308 18.7804 53.6527 18.8379 53.6527H20.0871C20.2491 53.6527 20.2491 53.6527 20.2491 53.8053V55.8907C20.2491 56.022 20.2373 56.0332 20.0989 56.0332H18.8379C18.7455 56.0332 18.7338 56.0438 18.7338 56.1313V59.5604C18.7338 59.626 18.7107 59.6479 18.6414 59.6479H15.9579C15.8886 59.6479 15.8768 59.6148 15.8768 59.5604C15.8999 58.0641 15.9004 56.5791 15.9004 55.0833ZM39.0081 56.7536V55.0279C39.0081 54.9297 38.985 54.9078 38.8809 54.9078H37.9558C37.8635 54.9078 37.8517 54.8971 37.8517 54.8096V52.6148C37.8517 52.538 37.8748 52.5166 37.9558 52.5166H38.8696C38.985 52.5166 38.9968 52.4947 38.9968 52.3961V50.2125C38.9968 50.1138 39.0081 50.1031 39.1122 50.1031H41.6799C41.7953 50.1031 41.8071 50.1138 41.8071 50.2232C41.8071 50.6271 41.8189 51.0422 41.8189 51.4462C41.8189 51.7632 41.8189 52.0684 41.8302 52.3854C41.8302 52.5054 41.8532 52.5166 41.9804 52.5166H42.802C42.8943 52.5166 42.9173 52.538 42.9173 52.6255V54.7984C42.9173 54.8859 42.8943 54.9078 42.802 54.9078H41.9691C41.8532 54.9078 41.842 54.9297 41.842 55.0279V56.6004C41.842 56.7317 41.842 56.8736 41.923 57.0044C42.0035 57.1463 42.1194 57.2338 42.2927 57.2557C42.3625 57.2669 42.443 57.2669 42.5127 57.2669H43.2989C43.4261 57.2669 43.4379 57.2776 43.4379 57.3982V59.5161C43.4379 59.6143 43.4261 59.6362 43.322 59.6362H40.4537C40.0954 59.6414 39.7468 59.5252 39.4707 59.3086C39.3198 59.1955 39.1986 59.051 39.1164 58.8862C39.0342 58.7215 38.9933 58.5409 38.9968 58.3587C39.0081 57.8347 39.0081 57.299 39.0081 56.7536ZM67.2507 59.7568C66.8691 59.7782 66.4989 59.713 66.1404 59.6255C65.7793 59.5259 65.4363 59.375 65.123 59.1778C64.6469 58.8793 64.2316 58.5019 63.8968 58.0636C63.6783 57.78 63.514 57.4623 63.4112 57.125C63.2491 56.6335 63.203 56.1309 63.2491 55.6287C63.2953 55.1154 63.4461 54.6239 63.7348 54.1762C64.0411 53.6842 64.4506 53.2568 64.9379 52.9206C65.2257 52.7175 65.5458 52.559 65.8861 52.451C66.5115 52.2534 67.1778 52.2009 67.8291 52.2979C68.0722 52.3309 68.3148 52.3854 68.5461 52.451C68.8814 52.5492 69.1825 52.7018 69.4712 52.8875C69.8811 53.1706 70.2371 53.5178 70.524 53.9142C70.5584 53.9579 70.5584 53.9905 70.5009 54.0236C69.9917 54.3293 69.4712 54.6351 68.9625 54.9409C68.743 55.0721 68.523 55.2136 68.2917 55.3443C68.1763 55.4104 68.1763 55.4104 68.0835 55.3122C67.992 55.2162 67.8914 55.1284 67.783 55.0497C67.6209 54.9297 67.4127 54.9078 67.2163 54.9185C67.0312 54.9297 66.8578 54.9297 66.684 54.9953C66.4296 55.0828 66.2445 55.2354 66.1404 55.4756C66.0132 55.7707 66.0132 56.0764 66.0943 56.3822C66.1635 56.6661 66.3486 56.8732 66.6496 56.9718C66.9732 57.0812 67.2855 57.1031 67.6209 57.0156C67.8173 56.9611 67.9681 56.8406 68.0953 56.6879C68.1066 56.6661 68.1296 56.6554 68.1414 56.6335C68.1645 56.6004 68.1994 56.6004 68.2337 56.6223C68.8235 56.9825 69.425 57.3432 70.0148 57.7034L70.5009 57.9985C70.5584 58.0311 70.5584 58.0636 70.524 58.1074C70.1655 58.5882 69.7491 58.9921 69.2168 59.2979C68.8235 59.5166 68.3958 59.6693 67.945 59.7237C67.725 59.7563 67.4937 59.7675 67.2737 59.7893C67.2507 59.7782 67.2507 59.7679 67.2507 59.7568ZM48.7348 54.0236V49.5902C48.7348 49.4697 48.7466 49.459 48.8732 49.459H51.4178C51.5337 49.459 51.545 49.4809 51.545 49.5902V56.5572C51.545 56.6554 51.5568 56.7536 51.5681 56.8518C51.603 57.0593 51.7881 57.2338 52.0076 57.2669C52.0999 57.2776 52.1927 57.2776 52.2968 57.2776H54.182C54.2743 57.2776 54.2861 57.2995 54.2861 57.3977V59.5492C54.2861 59.6148 54.263 59.6474 54.182 59.6474H50.0071C49.7409 59.6474 49.4748 59.5929 49.2435 59.4617C49.0491 59.3534 48.9016 59.1832 48.8271 58.9814C48.7348 58.752 48.7117 58.5225 48.7117 58.2824C48.7348 56.8629 48.7348 55.4435 48.7348 54.0236ZM87.2009 56.5241V53.7387C87.2009 53.5642 87.2127 53.379 87.2476 53.204C87.3399 52.8107 87.5712 52.538 87.9876 52.4175C88.1958 52.3523 88.404 52.3411 88.6122 52.3411H92.0009C92.1163 52.3411 92.1394 52.363 92.1394 52.4724V54.5909C92.1394 54.7109 92.1281 54.7221 92.0009 54.7221C91.5727 54.7221 91.1563 54.7109 90.7286 54.7221C90.5896 54.7221 90.4512 54.7435 90.324 54.7872C90.1271 54.8529 90.0578 55.0167 90.0348 55.2024C90.023 55.2675 90.0348 55.3336 90.0348 55.3988V59.5482C90.0348 59.6138 90.0117 59.6357 89.9419 59.6357H87.3286C87.2358 59.6357 87.2127 59.6138 87.2127 59.5375C87.1916 58.533 87.1877 57.5287 87.2009 56.5241Z" fill="black"/>
</svg>
