<svg width="109" height="110" viewBox="0 0 109 110" fill="none" xmlns="http://www.w3.org/2000/svg">
<path d="M19.6995 36.2391C19.6625 34.3629 20.3354 32.5484 21.5695 31.1962C22.8037 29.8439 24.4976 29.0654 26.2771 29.0323C26.3817 29.0257 26.4866 29.0257 26.5912 29.0323C28.9 28.9995 31.0521 30.2601 32.2454 32.3443L30.3607 33.4968C29.5909 32.0758 28.1428 31.2157 26.5912 31.2579C24.1223 31.4482 22.2112 33.6157 22.2112 36.2259C22.2112 38.8361 24.1223 41.0036 26.5912 41.1938C28.1455 41.2407 29.5967 40.3762 30.3607 38.9483L32.2454 40.081C31.0567 42.1702 28.9016 43.4326 26.5912 43.393C24.8099 43.4482 23.0807 42.7547 21.7846 41.4651C20.4884 40.1755 19.7316 38.3956 19.6807 36.5173C19.6995 36.4577 19.6932 36.3451 19.6995 36.2391Z" fill="black"/>
<path d="M42.1174 36.9956V42.4984H39.9905V37.193C40.1219 36.1677 39.3148 35.2392 38.1864 35.1175C38.0505 35.1085 37.914 35.1085 37.7781 35.1175C36.3756 35.1175 35.2694 35.8711 35.2694 37.7014V42.4864H33.1426V29.9258H35.2694V34.6809C35.9427 33.7548 37.1123 33.2292 38.3312 33.3052C40.5436 33.2992 42.1174 34.6689 42.1174 36.9956Z" fill="black"/>
<path fill-rule="evenodd" clip-rule="evenodd" d="M50.2129 39.9907C49.648 40.7618 48.7362 41.2003 47.7816 41.16C46.2738 41.16 45.0865 40.4056 44.7724 38.9346H52.2923C52.3361 38.6537 52.3613 38.3702 52.3677 38.086C52.3677 35.3766 50.4516 33.1135 47.6434 33.1135H47.323C46.0443 33.148 44.8319 33.6905 43.9537 34.6212C43.0755 35.5518 42.6038 36.794 42.6427 38.0734C42.6427 40.896 44.6216 43.027 47.7628 43.027C49.3985 43.0974 50.9555 42.3208 51.884 40.9714L50.2129 39.9907ZM47.5994 34.9617C48.9638 34.9164 50.1353 35.9247 50.2946 37.2813H44.7598C44.9709 35.8934 46.1981 34.8908 47.5994 34.9617Z" fill="black"/>
<path d="M52.8877 29.0273H55.5801V42.498H52.8877V29.0273Z" fill="black"/>
<path d="M63.6574 40.5011C63.6574 42.3809 61.8947 43.396 59.7065 43.396C57.6804 43.396 56.2284 42.5501 55.5801 41.1966L57.4643 40.1815C57.7987 41.0491 58.7162 41.6029 59.7065 41.535C60.679 41.535 61.4287 41.2342 61.4287 40.4823C61.4287 38.8155 55.9853 39.7492 55.9853 36.3905C55.9853 34.6235 57.6264 33.5207 59.6863 33.5207C61.237 33.4628 62.6893 34.2251 63.4345 35.4882L61.5908 36.4469C61.2435 35.769 60.4947 35.3478 59.6863 35.3754C58.8961 35.3754 58.214 35.695 58.214 36.3717C58.214 38.0824 63.6574 37.0485 63.6574 40.5011Z" fill="black"/>
<path fill-rule="evenodd" clip-rule="evenodd" d="M71.6986 39.9973C71.1309 40.7642 70.2203 41.1998 69.2674 41.1603C67.7659 41.1603 66.5785 40.4059 66.2581 38.9412H73.753C73.7968 38.6603 73.822 38.3768 73.8284 38.0926C73.8284 35.3832 71.906 33.1201 69.0978 33.1201H68.7774C67.5042 33.1595 66.2989 33.7037 65.4269 34.6328C64.5549 35.5619 64.0878 36.7998 64.1284 38.0737C64.1284 40.8963 66.1451 43.0273 69.2485 43.0273C70.8848 43.1001 72.4429 42.323 73.3698 40.9717L71.6986 39.9973ZM69.0847 34.9687C70.4491 34.917 71.6233 35.9249 71.7799 37.2821H66.2451C66.4564 35.8951 67.6845 34.8945 69.0847 34.9687Z" fill="black"/>
<path fill-rule="evenodd" clip-rule="evenodd" d="M84.5709 42.7948V33.3653H82.5417V34.7043C81.7717 33.6629 80.537 33.0699 79.2434 33.1201C76.6062 33.2531 74.5361 35.4315 74.5361 38.0737C74.5361 40.716 76.6062 42.8944 79.2434 43.0273C80.5409 43.0826 81.7796 42.4829 82.5417 41.4306V42.7948H84.5709ZM79.5429 35.1251C81.1833 35.1136 82.5241 36.4318 82.5414 38.0733V38.2179C82.5299 38.9943 82.2089 39.7339 81.6496 40.2722C81.0904 40.8105 80.3394 41.1029 79.5636 41.0844C77.9231 41.0843 76.5917 39.7566 76.586 38.1151C76.5802 36.4735 77.9024 35.1366 79.5429 35.1251Z" fill="black"/>
<path fill-rule="evenodd" clip-rule="evenodd" d="M26.1267 61.5215C29.7391 61.5215 32.4091 58.6047 32.4091 54.9335C32.4091 51.2372 29.7328 48.3392 26.1142 48.3203H20.9375V61.5215H26.1267ZM26.102 50.4141C28.6087 50.4141 30.3238 52.3125 30.3238 54.9339C30.3175 57.5302 28.6212 59.4538 26.1083 59.4538H23.0928V50.4141H26.102Z" fill="black"/>
<path fill-rule="evenodd" clip-rule="evenodd" d="M34.1065 48.1882C33.62 48.3912 33.3041 48.868 33.3067 49.3955C33.3067 50.1107 33.8861 50.6904 34.6008 50.6904C35.1279 50.693 35.6044 50.3769 35.8073 49.8901C36.0102 49.4032 35.8994 48.842 35.5266 48.4691C35.1539 48.0961 34.593 47.9852 34.1065 48.1882ZM35.6185 52.1045H33.583V61.5339H35.6185V52.1045Z" fill="black"/>
<path fill-rule="evenodd" clip-rule="evenodd" d="M46.6951 61.0939V52.1045H44.7099V53.5001C43.9658 52.4352 42.7347 51.8181 41.4368 51.8594C38.821 51.9535 36.749 54.1027 36.749 56.7218C36.749 59.341 38.821 61.4901 41.4368 61.5843C42.7352 61.6279 43.9673 61.0103 44.7099 59.9435V61.0939C44.7099 62.7284 43.6545 63.6902 41.9017 63.6902C40.2683 63.6902 39.571 63.049 39.1563 62.238L37.3973 63.2564C38.1888 64.7651 39.7845 65.5384 41.8577 65.5384C44.3204 65.5384 46.6951 64.1239 46.6951 61.0939ZM42.8741 53.9207C43.9898 54.4017 44.7048 55.5092 44.6844 56.7247L44.6656 56.7184V56.863C44.611 58.4658 43.2709 59.7224 41.6689 59.6729C40.4541 59.6651 39.3642 58.9242 38.9094 57.7969C38.4546 56.6697 38.725 55.3792 39.5939 54.5297C40.4628 53.6801 41.7584 53.4396 42.8741 53.9207Z" fill="black"/>
<path fill-rule="evenodd" clip-rule="evenodd" d="M48.9187 48.0938C48.2005 48.0938 47.6182 48.6763 47.6182 49.395C47.6251 50.1108 48.2033 50.6895 48.9187 50.6963C49.6369 50.6963 50.2191 50.1137 50.2191 49.395C50.2191 48.6763 49.6369 48.0938 48.9187 48.0938ZM49.9359 52.1045H47.9005V61.5339H49.9359V52.1045Z" fill="black"/>
<path d="M54.9683 54.1161V58.4531C54.9683 59.6112 55.7835 59.5931 57.3751 59.5207V61.276C54.1401 61.6379 52.8461 60.8055 52.8461 58.4591V54.1161H51.0928V52.2402H52.872V50.2858L54.9683 49.6826V52.216H57.3751V54.098L54.9683 54.1161Z" fill="black"/>
<path fill-rule="evenodd" clip-rule="evenodd" d="M67.4705 61.5402V52.1107H65.435V53.4434C64.6671 52.4037 63.434 51.8127 62.143 51.8656C59.5058 51.9986 57.4357 54.1769 57.4357 56.8192C57.4357 59.4614 59.5058 61.6398 62.143 61.7728C63.4395 61.8244 64.6756 61.2225 65.435 60.1698V61.5402H67.4705ZM62.4364 53.871C64.0769 53.8595 65.4177 55.1777 65.435 56.8192V56.9889C65.4169 57.7609 65.0929 58.4941 64.5344 59.027C63.9759 59.5599 63.2287 59.8489 62.4572 59.8303C60.8167 59.8302 59.4852 58.5025 59.4795 56.861C59.4738 55.2195 60.796 53.8825 62.4364 53.871Z" fill="black"/>
<path d="M69.3789 47.8867H72.0713V61.3574H69.3789V47.8867Z" fill="black"/>
<path d="M19.6807 66.7451H22.0514L25.5174 77.5602L29.0144 66.7451H31.3479L26.8054 80.2158H24.2293L19.6807 66.7451Z" fill="black"/>
<path fill-rule="evenodd" clip-rule="evenodd" d="M37.4915 77.5706C36.9238 78.3375 36.0132 78.7731 35.0602 78.7335C33.5587 78.7335 32.3714 77.9792 32.051 76.5145H39.5332C39.577 76.2336 39.6022 75.9501 39.6086 75.6658C39.6086 72.9564 37.6862 70.6934 34.8843 70.6934H34.5576C33.2845 70.7328 32.0791 71.2769 31.2072 72.2061C30.3352 73.1352 29.8681 74.373 29.9087 75.647C29.9087 78.4695 31.9253 80.6006 35.0288 80.6006C36.6665 80.6719 38.2258 79.8953 39.1563 78.5449L37.4915 77.5706ZM34.884 72.5348C36.247 72.4898 37.4166 73.4988 37.5728 74.8545H32.0381C32.2521 73.4655 33.4813 72.4636 34.884 72.5348Z" fill="black"/>
<path d="M49.2971 74.3152V80.209H47.1652V74.5273C47.2965 73.429 46.4929 72.4342 45.3689 72.3035C45.2334 72.2874 45.0965 72.2874 44.961 72.3035C43.5595 72.3035 42.4541 73.1069 42.4541 75.0736V80.2154H40.3223V70.5745H42.4541V71.8536C43.1198 70.8472 44.2894 70.2698 45.5137 70.3432C47.7179 70.3496 49.2971 71.815 49.2971 74.3152Z" fill="black"/>
<path d="M53.1798 72.9814V77.3311C53.1798 78.485 53.9951 78.4669 55.5802 78.3944V80.1343C52.3452 80.4968 51.0512 79.6631 51.0512 77.313V72.9632H49.2979V71.1025H51.0836V69.1451L53.1798 68.541V71.0784H55.5802V72.9572L53.1798 72.9814Z" fill="black"/>
<path d="M65.4523 71.2354V79.9641H63.3205V78.8664C62.648 79.7676 61.4829 80.2801 60.2675 80.2093C58.0567 80.2093 56.4775 78.8781 56.4775 76.6069V71.2354H58.6094V76.4142C58.5464 76.8943 58.701 77.3768 59.0391 77.7557C59.3773 78.1346 59.8712 78.3787 60.4122 78.4344C60.5477 78.449 60.6847 78.449 60.8202 78.4344C62.2151 78.4344 63.3205 77.7045 63.3205 75.9179V71.247L65.4523 71.2354Z" fill="black"/>
<path d="M71.5104 71.1984V73.199C70.1773 73.1135 68.6116 73.6778 68.6116 75.5929V79.8735H66.5742V71.3238H68.6116V72.7601C69.1274 71.7453 70.2804 71.1242 71.5104 71.1984Z" fill="black"/>
<path fill-rule="evenodd" clip-rule="evenodd" d="M78.6845 77.6956C78.1175 78.464 77.2071 78.9018 76.2532 78.8648C74.7455 78.8648 73.5644 78.1105 73.244 76.6395H80.72C80.764 76.3607 80.7892 76.0793 80.7954 75.7971C80.7954 73.0814 78.8793 70.8184 76.071 70.8184H75.7506C73.1023 70.9072 71.0241 73.1216 71.1017 75.772C71.1017 78.6008 73.1183 80.7318 76.2218 80.7318C77.8622 80.8078 79.4255 80.0305 80.3556 78.6762L78.6845 77.6956ZM76.0711 72.6665C77.4354 72.6213 78.6069 73.6295 78.7662 74.9862H73.2314C73.4425 73.5982 74.6698 72.5957 76.0711 72.6665Z" fill="black"/>
<path d="M88.7865 78.2194C88.7865 80.0989 87.2197 81.1138 85.2806 81.1138C83.4797 81.1138 82.183 80.268 81.6067 78.9148L83.2816 77.8999C83.5845 78.7655 84.3998 79.3174 85.2806 79.2531C86.1391 79.2531 86.8054 78.9524 86.8054 78.2006C86.8054 76.5341 81.9669 77.4676 81.9669 74.1095C81.9669 72.3428 83.4256 71.2401 85.2626 71.2401C86.6492 71.1673 87.9524 71.9327 88.6124 73.2073L86.9855 74.1534C86.6878 73.4683 86.0185 73.0432 85.2986 73.082C84.5963 73.082 83.9839 73.4016 83.9839 74.0782C83.9839 75.7885 88.7865 74.7548 88.7865 78.2194Z" fill="black"/>
</svg>
