<svg width="81" height="80" viewBox="0 0 81 80" fill="none" xmlns="http://www.w3.org/2000/svg">
<circle cx="40" cy="40" r="37" transform="rotate(-90 40 40)" stroke="black" stroke-width="6"/>
<path d="M25.7864 25.5814C33.2846 18.0833 41.7683 13.1964 49.304 11.2549C56.9155 9.29396 62.9687 10.4378 66.5238 13.9929C70.0787 17.548 71.222 23.6008 69.2611 31.212C67.3196 38.7477 62.4327 47.2314 54.9346 54.7296C47.4364 62.2277 38.9527 67.1145 31.4171 69.0561C23.8058 71.0169 17.7531 69.8737 14.1979 66.3188C10.6428 62.7637 9.49898 56.7104 11.4599 49.0989C13.4015 41.5633 18.2883 33.0796 25.7864 25.5814Z" stroke="black" stroke-width="6"/>
<path d="M34.4329 45.538C26.8208 37.9258 20.8808 30.2395 17.4036 24.03C15.6545 20.9064 14.6155 18.3096 14.2293 16.3768C13.8167 14.3118 14.2815 13.8027 14.2852 13.799C14.3002 13.7853 14.8204 13.3359 16.8623 13.7438C18.7951 14.13 21.3925 15.1684 24.5161 16.9175C30.7257 20.3946 38.4114 26.3354 46.0235 33.9474C53.6358 41.5597 59.577 49.2459 63.0542 55.4555C64.8033 58.5791 65.8416 61.1766 66.2278 63.1094C66.6358 65.1512 66.1863 65.6715 66.1726 65.6864C66.1689 65.6901 65.6598 66.1549 63.5948 65.7424C61.6621 65.3562 59.0652 64.3171 55.9417 62.568C49.732 59.0908 42.0452 53.1503 34.4329 45.538Z" stroke="black" stroke-width="6"/>
</svg>
