<svg width="109" height="109" viewBox="0 0 109 109" fill="none" xmlns="http://www.w3.org/2000/svg">
<path fill-rule="evenodd" clip-rule="evenodd" d="M63.0694 51.0752C60.9376 51.0752 59.2412 52.6878 59.2412 54.8766C59.2412 57.0664 60.9381 58.6795 63.0694 58.6795C65.2008 58.6795 66.8962 57.0664 66.8962 54.8766C66.8962 52.6878 65.2008 51.0752 63.0694 51.0752ZM45.0611 51.1736H49.9545V52.5142H46.5832V54.2126H49.5527V55.5196H46.5832V57.2414H50.1073V58.581H45.0606V51.1736H45.0611ZM40.0729 51.1738H37.4741H37.4736V58.5812H38.9967V56.1525H40.0729C41.5739 56.1525 42.8244 55.3891 42.8244 53.6572C42.8244 51.9253 41.5844 51.1738 40.0729 51.1738ZM41.2591 53.6574C41.2591 54.4745 40.7812 54.8122 40.0306 54.8122V54.8117H38.9971V52.5146H40.0306C40.7591 52.5146 41.2591 52.8298 41.2591 53.6574ZM54.1917 51.1736H52.6691V58.581H57.5415V57.2414H54.1917V51.1736ZM65.3313 54.8773C65.3313 53.4945 64.4179 52.4375 63.0697 52.4375C61.7205 52.4375 60.8076 53.4945 60.8076 54.8773C60.8076 56.2614 61.7205 57.318 63.0697 57.318C64.4179 57.318 65.3313 56.2609 65.3313 54.8773ZM70.6474 52.5139H68.5381V51.1729H74.2797V52.5139H72.1704V58.5808H70.6474V52.5139ZM79.7381 52.4375C81.0864 52.4375 81.9997 53.4945 81.9997 54.8773C81.9997 56.2609 81.0864 57.318 79.7381 57.318C78.3889 57.318 77.4756 56.2614 77.4756 54.8773C77.4756 53.4945 78.3889 52.4375 79.7381 52.4375ZM75.9102 54.8766C75.9102 52.6878 77.6071 51.0752 79.7389 51.0752C81.8702 51.0752 83.5666 52.6878 83.5666 54.8766C83.5666 57.0664 81.8702 58.6795 79.7389 58.6795C77.6071 58.6795 75.9102 57.0664 75.9102 54.8766ZM87.3357 54.1258C87.3357 54.1258 87.8477 54.7906 88.217 55.1388L91.948 58.6466H92.0993V51.174H90.6749V54.279C90.6749 54.7906 90.7722 55.6287 90.7722 55.6287C90.7722 55.6287 90.2616 54.9539 89.9024 54.6167L86.1723 51.1084H86.0205V58.5819H87.4454V55.4764C87.4454 54.9429 87.3357 54.1258 87.3357 54.1258Z" fill="black"/>
<path d="M30.3615 49.1745L31.9468 46.4229C32.4108 45.6185 32.1358 44.5904 31.3323 44.1249C30.9464 43.902 30.4877 43.8418 30.0574 43.9574C29.627 44.073 29.2603 44.3551 29.0381 44.7413L27.4528 47.4919C24.0738 46.4253 20.2916 47.8057 18.4467 51.006C17.3192 52.9578 17.0997 55.3045 17.8456 57.4316L20.7734 52.3518C21.438 51.1908 22.5396 50.344 23.8324 50.0002C25.1229 49.6502 26.4998 49.8318 27.6554 50.5045C30.0612 51.8959 30.8883 54.9884 29.4993 57.3976C28.1104 59.8076 25.0231 60.6362 22.6178 59.2449L24.297 56.3314C24.6827 56.5545 25.1414 56.615 25.5718 56.4996C26.0021 56.3841 26.3689 56.1022 26.5912 55.716C27.0545 54.9115 26.7794 53.8839 25.9762 53.4185C25.5904 53.1955 25.1319 53.1351 24.7015 53.2505C24.2712 53.3659 23.9044 53.6478 23.682 54.0339L18.3255 63.3269C17.8618 64.1312 18.1367 65.159 18.94 65.6245C19.3257 65.8477 19.7844 65.9081 20.2149 65.7926C20.6453 65.677 21.012 65.3949 21.2341 65.0085L22.8199 62.2579C26.1984 63.3245 29.9812 61.9442 31.8261 58.7434C33.671 55.5431 32.9732 51.5716 30.361 49.174" fill="black"/>
</svg>
