<svg width="109" height="109" viewBox="0 0 109 109" fill="none" xmlns="http://www.w3.org/2000/svg">
<path fill-rule="evenodd" clip-rule="evenodd" d="M39.5109 50.6461C36.3345 50.6461 33.9805 52.988 33.9805 56.1649V62.0688H36.6358L36.5967 56.1765C36.5967 54.4674 37.8029 53.2595 39.5115 53.2595C41.2206 53.2595 42.4268 54.4658 42.4268 56.1765L42.3866 62.0688H45.0425V56.1644C45.0425 52.988 42.6884 50.6455 39.5115 50.6455L39.5109 50.6461ZM72.0752 62.0665H74.687V51.0635H72.0752V62.0665ZM73.9323 46.8113H72.834C72.4165 46.8113 72.0772 47.1506 72.0772 47.5681V48.6664C72.0772 49.0833 72.4165 49.4232 72.834 49.4232H73.9323C74.3492 49.4232 74.6885 49.0833 74.6885 48.6664V47.5681C74.6885 47.1506 74.3492 46.8113 73.9323 46.8113ZM67.958 46.8047L66.5811 48.1817L67.958 49.5586L69.335 48.1817L67.958 46.8047ZM61.3613 62.0678H63.9726V46.8115H61.3613V62.0678ZM66.7197 62.0665H69.331V51.0635H66.7197V62.0665Z" fill="black"/>
<path fill-rule="evenodd" clip-rule="evenodd" d="M47.4297 56.1898C47.4297 53.0053 50.0114 50.4258 53.1937 50.4258H53.1943C56.3761 50.4258 58.9578 53.0053 58.9578 56.1898C58.9578 59.3743 56.3761 61.9539 53.1937 61.9539C50.0092 61.9539 47.4297 59.3722 47.4297 56.1898ZM50.041 56.123C50.041 54.3453 51.4822 52.9053 53.2588 52.9053H53.2591C55.0353 52.9053 56.4765 54.3453 56.4765 56.123C56.4765 57.9007 55.0353 59.3408 53.2588 59.3408C51.481 59.3408 50.041 57.8995 50.041 56.123Z" fill="black"/>
</svg>
