<svg width="109" height="109" viewBox="0 0 109 109" fill="none" xmlns="http://www.w3.org/2000/svg">
<path d="M43.934 46.5024V46.9631C42.8732 47.0328 42.3009 47.5353 41.7984 48.7636L35.964 63.6289H35.5033L31.0368 52.2671L26.5423 63.6289H26.0817L20.2054 48.7636C19.7029 47.5912 19.1446 47.0328 18 46.9631V46.5024H24.2671V46.9631C22.8016 46.991 22.1037 47.7028 22.4945 48.7636L26.961 60.265L30.4924 50.969L29.627 48.7636C29.1664 47.5632 28.5941 47.0328 27.4217 46.9631V46.5024H33.6888V46.9631C32.2232 46.991 31.5253 47.7028 31.9161 48.7636L36.3827 60.265L40.7515 48.7636C41.1563 47.7307 40.5143 46.991 39.1464 46.9631V46.5024H43.92H43.934Z" fill="#171512"/>
<path d="M43.2642 55.1704C43.2642 49.7687 46.3908 46 50.969 46C55.5472 46 58.3388 49.4616 58.3388 54.4725C58.3388 59.8743 55.2122 63.601 50.634 63.601C46.0558 63.601 43.2642 60.1674 43.2642 55.1704ZM56.0357 55.5054C56.0357 52.309 54.5981 46.9352 50.4665 46.9352C47.4934 46.9352 45.5951 49.8664 45.5951 53.9979C45.5951 57.2641 46.963 62.6659 51.1644 62.6659C54.1374 62.6659 56.0357 59.6649 56.0357 55.5054Z" fill="#171512"/>
<path d="M76.9025 62.6658V63.1264H70.0631V62.6658C71.2356 62.4704 72.3941 62.2052 72.3941 60.6977V51.0946C72.3941 48.8893 71.1658 47.5912 69.1558 47.5912C67.3273 47.5912 65.8617 48.4566 63.9495 50.6898V60.6838C63.9495 62.1773 65.122 62.4564 66.2805 62.6519V63.1125H59.4411V62.6519C60.6415 62.4564 61.8139 62.1912 61.8139 60.6838V49.4057C61.8139 48.2332 61.3114 47.7447 60.0831 47.6749H59.2177V47.2143L63.4889 46.0139H63.9495V49.9501C65.8478 47.3818 67.6205 46.0139 69.9794 46.0139C72.8128 46.0139 74.5157 47.7866 74.5157 50.983V60.7117C74.5157 62.2052 75.6882 62.4844 76.8886 62.6798L76.9025 62.6658Z" fill="#171512"/>
<path d="M91 58.8274C90.1625 61.5632 87.664 63.601 84.4956 63.601C80.0011 63.601 77.1257 59.9999 77.1257 55.1704C77.1257 49.7407 80.2523 46 84.8306 46C88.669 46 90.9581 49.0708 90.9581 53.3H79.3869C79.3869 53.5652 79.359 53.8025 79.359 54.0677C79.2194 58.632 81.8296 61.5632 85.6541 61.5632C88.1526 61.5632 89.66 60.1255 90.6231 58.6599L90.986 58.8274H91ZM79.5265 52.3649H88.4875C88.4178 49.5035 86.8545 46.9352 84.356 46.9352C81.8575 46.9352 80.0569 49.1685 79.5265 52.3649Z" fill="#171512"/>
</svg>
