<svg width="109" height="110" viewBox="0 0 109 110" fill="none" xmlns="http://www.w3.org/2000/svg">
<path d="M32.5587 55.629C32.5587 57.337 31.3127 58.667 29.0727 58.667H25.9367C25.5587 58.667 25.2507 58.345 25.2507 57.967V49.245C25.2507 48.853 25.5587 48.545 25.9507 48.545H28.9327C30.0247 48.545 30.7527 48.783 31.2707 49.273C31.7747 49.735 32.0827 50.393 32.0827 51.205C32.0827 52.129 31.5787 52.745 30.9907 53.165C31.8867 53.543 32.5587 54.439 32.5587 55.629ZM30.6967 51.233C30.6967 50.351 30.1087 49.805 28.8907 49.805H26.6507V52.647H29.0727C30.2907 52.647 30.6967 52.045 30.6967 51.233ZM31.1167 55.643C31.1167 54.551 30.4867 53.879 29.1567 53.879H26.6507V57.407H29.1007C30.3747 57.407 31.1167 56.693 31.1167 55.643ZM39.5751 57.743C39.1551 58.373 38.4691 58.737 37.6571 58.737C35.8791 58.737 34.5071 57.225 34.5071 54.915C34.5071 52.619 35.8651 51.079 37.6431 51.079C38.3711 51.079 39.0991 51.373 39.5751 52.017V51.807C39.5751 51.443 39.8691 51.149 40.2331 51.149C40.5971 51.149 40.8911 51.443 40.8911 51.807V58.009C40.8911 58.373 40.5971 58.667 40.2331 58.667C39.8691 58.667 39.5751 58.373 39.5751 58.009V57.743ZM37.6991 57.617C38.7631 57.617 39.5891 56.609 39.5891 54.915C39.5891 53.235 38.7631 52.199 37.6991 52.199C36.6071 52.199 35.8091 53.235 35.8091 54.915C35.8091 56.609 36.6071 57.617 37.6991 57.617ZM45.0068 51.807V51.975C45.4548 51.457 46.2248 51.079 47.1348 51.079C47.9188 51.079 48.7728 51.387 49.2348 52.171C49.5428 52.689 49.5988 53.333 49.5988 53.991V58.009C49.5988 58.373 49.3048 58.667 48.9408 58.667C48.5768 58.667 48.2828 58.373 48.2828 58.009V54.061C48.2828 53.725 48.2548 53.305 48.1708 53.067C48.0028 52.591 47.5548 52.269 46.8828 52.269C46.2808 52.269 45.6088 52.563 45.2728 53.123C45.0768 53.431 45.0068 53.837 45.0068 54.187V58.009C45.0068 58.373 44.7128 58.667 44.3488 58.667C43.9848 58.667 43.6908 58.373 43.6908 58.009V51.807C43.6908 51.443 43.9848 51.149 44.3488 51.149C44.7128 51.149 45.0068 51.443 45.0068 51.807ZM57.7634 52.339L55.5234 54.495L58.0294 57.575C58.1414 57.715 58.2254 57.869 58.2254 58.051C58.2254 58.401 57.9314 58.695 57.5814 58.695C57.4274 58.695 57.2314 58.639 57.0774 58.443L54.6414 55.335L53.6614 56.273V58.009C53.6614 58.373 53.3674 58.667 53.0034 58.667C52.6394 58.667 52.3454 58.373 52.3454 58.009V49.203C52.3454 48.839 52.6394 48.545 53.0034 48.545C53.3674 48.545 53.6614 48.839 53.6614 49.203V54.607L56.9094 51.359C57.0354 51.233 57.2034 51.149 57.3854 51.149C57.7214 51.149 58.0294 51.429 58.0294 51.793C58.0294 52.003 57.9174 52.199 57.7634 52.339ZM65.8501 54.705C65.8501 55.181 65.5701 55.391 65.2201 55.391H61.0201C61.1181 56.693 61.8181 57.617 62.8681 57.617C63.5961 57.617 64.0581 57.337 64.4501 56.791C64.5901 56.595 64.7581 56.483 64.9821 56.483C65.3181 56.483 65.5281 56.735 65.5281 57.071C65.5281 57.239 65.4441 57.393 65.3741 57.505C64.9121 58.205 64.1001 58.737 62.8961 58.737C61.0901 58.737 59.7181 57.281 59.7181 54.915C59.7181 52.451 61.2301 51.079 62.8961 51.079C64.5481 51.079 65.8501 52.353 65.8501 54.705ZM64.5621 54.271C64.5201 52.997 63.8901 52.199 62.8961 52.199C61.8881 52.199 61.1461 52.997 61.0481 54.271H64.5621ZM70.8658 58.737C69.1018 58.737 67.7298 57.211 67.7298 54.901C67.7298 52.633 69.0318 51.079 70.7818 51.079C71.7338 51.079 72.3638 51.471 72.7978 51.975V49.203C72.7978 48.839 73.0918 48.545 73.4558 48.545C73.8198 48.545 74.1138 48.839 74.1138 49.203V58.009C74.1138 58.373 73.8198 58.667 73.4558 58.667C73.0918 58.667 72.7978 58.373 72.7978 58.009V57.785C72.3078 58.373 71.6498 58.737 70.8658 58.737ZM70.9218 52.199C69.8298 52.199 69.0318 53.207 69.0318 54.901C69.0318 56.581 69.8298 57.617 70.9218 57.617C71.9858 57.617 72.8118 56.581 72.8118 54.901C72.8118 53.207 71.9858 52.199 70.9218 52.199ZM84.0369 52.325C84.0369 53.025 83.4769 53.585 82.7769 53.585C82.0909 53.585 81.5309 53.025 81.5309 52.325C81.5309 51.639 82.0909 51.079 82.7769 51.079C83.4769 51.079 84.0369 51.639 84.0369 52.325ZM84.0369 57.491C84.0369 58.177 83.4769 58.737 82.7769 58.737C82.0909 58.737 81.5309 58.177 81.5309 57.491C81.5309 56.791 82.0909 56.231 82.7769 56.231C83.4769 56.231 84.0369 56.791 84.0369 57.491Z" fill="black"/>
</svg>
