<svg width="109" height="110" viewBox="0 0 109 110" fill="none" xmlns="http://www.w3.org/2000/svg">
<g clip-path="url(#clip0_2603_739)">
<path d="M18.9236 57.1556V52.8019H20.6526L20.6946 53.3588C21.0731 52.903 21.602 52.6753 22.2814 52.6753C22.6603 52.6753 22.9805 52.7374 23.2423 52.8611C23.5094 52.9843 23.724 53.1701 23.8855 53.418C24.0838 53.1775 24.3359 52.9894 24.6203 52.8695C24.9154 52.7398 25.2496 52.6753 25.6232 52.6753C25.9902 52.6753 26.319 52.7374 26.6083 52.8611C26.8981 52.9843 27.1237 53.1701 27.2853 53.418C27.4521 53.6595 27.536 53.9522 27.536 54.2952V57.1551H25.698V54.5564C25.698 54.343 25.6314 54.1769 25.4974 54.0587C25.3696 53.9404 25.2052 53.8817 25.0046 53.8817C24.8533 53.8808 24.7041 53.9185 24.5707 53.9916C24.4383 54.0632 24.3282 54.1712 24.2529 54.3036C24.1806 54.4327 24.1444 54.5821 24.1444 54.7506V57.1551H22.3064V54.5564C22.3064 54.4332 22.2761 54.3204 22.2148 54.2193C22.1624 54.1157 22.081 54.0305 21.981 53.9744C21.8775 53.9117 21.759 53.8796 21.6386 53.8817C21.4816 53.8793 21.3264 53.917 21.1873 53.9916C21.0568 54.0618 20.9472 54.1667 20.8701 54.2952C20.7951 54.4345 20.7575 54.5916 20.7611 54.7506V57.1551H18.9236V57.1556ZM31.0693 57.3074C30.496 57.3074 29.981 57.2172 29.5244 57.0373C29.0731 56.8515 28.7168 56.5844 28.455 56.236C28.199 55.8871 28.0707 55.4682 28.0707 54.9793C28.0707 54.5062 28.199 54.0961 28.455 53.7472C28.7168 53.3988 29.0673 53.1312 29.5076 52.9459C29.9531 52.7601 30.4429 52.6674 30.9777 52.6674C31.5457 52.6674 32.0529 52.7684 32.4979 52.971C32.9434 53.1681 33.2916 53.4549 33.5423 53.8315C33.7978 54.2026 33.9266 54.6417 33.9266 55.1473V55.3671H29.9005C29.9449 55.6594 30.0644 55.8816 30.2592 56.0334C30.454 56.1852 30.7216 56.2611 31.0611 56.2611C31.2949 56.2611 31.4902 56.2247 31.6459 56.1517C31.8017 56.0729 31.927 55.9546 32.022 55.7969L33.7843 55.89C33.5838 56.3681 33.2414 56.7254 32.7573 56.9614C32.2723 57.1921 31.7101 57.3074 31.0698 57.3074H31.0693ZM32.0302 54.4983C31.9854 54.2336 31.8769 54.037 31.7043 53.9074C31.5317 53.7723 31.2925 53.7053 30.9859 53.7053C30.3735 53.7053 30.0143 53.9695 29.9082 54.4983H32.0297H32.0302ZM38.498 51.149H40.336V57.1556H38.6484L38.5983 56.5903C38.2198 57.0851 37.6407 57.3325 36.861 57.3325C36.3596 57.3325 35.9227 57.2399 35.5495 57.0541C35.1928 56.8733 34.8964 56.5886 34.6976 56.236C34.497 55.8812 34.3967 55.4622 34.3967 54.9793C34.3967 54.484 34.5052 54.0626 34.7226 53.7137C34.9376 53.3662 35.2445 53.0882 35.6079 52.9118C35.9897 52.73 36.4065 52.6379 36.8278 52.6423C37.5346 52.6423 38.0915 52.8359 38.498 53.2238V51.149ZM37.362 56.0674C37.7299 56.0674 38.0163 55.9743 38.2227 55.7885C38.4338 55.5973 38.5399 55.3193 38.5399 54.9536C38.5399 54.588 38.4338 54.3095 38.2227 54.1183C38.0105 53.9212 37.727 53.8231 37.3702 53.8231C37.1643 53.8231 36.9777 53.8625 36.8109 53.9414C36.6411 54.0164 36.498 54.1431 36.401 54.3041C36.3012 54.4726 36.2516 54.6895 36.2516 54.9536C36.2516 55.3474 36.3543 55.6313 36.5602 55.8058C36.7718 55.9797 37.0389 56.067 37.362 56.067V56.0674ZM41.9681 52.3633C41.8049 52.3658 41.6438 52.3252 41.5004 52.2455C41.3625 52.1681 41.2472 52.0547 41.1663 51.9168C41.0872 51.7665 41.0469 51.5981 41.0491 51.4274C41.0491 51.253 41.0877 51.0982 41.1663 50.9632C41.2497 50.8227 41.3611 50.7128 41.5004 50.6345C41.6393 50.5556 41.7955 50.5162 41.9681 50.5162C42.1407 50.5162 42.2964 50.5556 42.4358 50.6345C42.5751 50.7133 42.6836 50.8227 42.7617 50.9632C42.8451 51.0982 42.8871 51.253 42.8871 51.4274C42.8871 51.6073 42.8451 51.7704 42.7617 51.9168C42.6855 52.0555 42.5725 52.1695 42.4358 52.2455C42.2924 52.3254 42.1313 52.3661 41.9681 52.3638V52.3633ZM42.8871 57.1556H41.0491V52.8019H42.8871V57.1551V57.1556ZM47.3442 57.1556C47.295 57.0209 47.256 56.8825 47.2275 56.7416C47.0212 56.9388 46.7647 57.0851 46.459 57.1803C46.1523 57.2818 45.7878 57.333 45.3645 57.333C44.702 57.333 44.2121 57.2226 43.8943 57.0033C43.5824 56.7786 43.4266 56.4385 43.4266 55.9832C43.4266 55.7126 43.4797 55.4854 43.5858 55.2996C43.6909 55.1138 43.8751 54.962 44.1364 54.8437C44.404 54.7205 44.7714 54.6358 45.2391 54.5909L46.5925 54.4559C46.754 54.4391 46.8707 54.4219 46.9431 54.4051C47.0212 54.3829 47.0713 54.3573 47.0935 54.3292C47.117 54.2915 47.1288 54.2473 47.1272 54.2026V54.1267C47.1272 53.9355 47.0631 53.798 46.9349 53.7137C46.8124 53.6235 46.6036 53.5786 46.308 53.5786C46.0356 53.5786 45.824 53.6289 45.6735 53.7304C45.5231 53.826 45.4373 53.9976 45.4146 54.245L43.6605 54.1774C43.7048 53.8344 43.822 53.5506 44.0115 53.3253C44.2063 53.1006 44.4932 52.9316 44.8717 52.8192C45.2502 52.7068 45.7434 52.6506 46.35 52.6506C46.9908 52.6506 47.5028 52.7152 47.8871 52.8443C48.2714 52.9739 48.5472 53.1622 48.714 53.4096C48.8814 53.6516 48.9648 53.9581 48.9648 54.3292V56.0591C48.9648 56.542 49.0318 56.9082 49.1653 57.1556H47.3442ZM45.8572 56.3454C46.1022 56.3454 46.3249 56.3089 46.5255 56.236C46.7261 56.1626 46.8847 56.0586 47.0019 55.9235C47.1186 55.789 47.1774 55.6283 47.1774 55.443V55.173C47.1494 55.1843 47.1244 55.1927 47.1022 55.1981H47.052L46.0163 55.3247C45.8042 55.3474 45.6403 55.3839 45.5231 55.4347C45.4064 55.479 45.3254 55.5381 45.281 55.6121C45.2335 55.6903 45.2102 55.7813 45.214 55.8733C45.214 56.031 45.2671 56.1488 45.3731 56.2276C45.4787 56.3065 45.6403 56.3459 45.8572 56.3459V56.3454ZM50.6335 57.2734C50.4551 57.2734 50.2912 57.2315 50.1403 57.1467C49.9939 57.0606 49.8705 56.9389 49.7811 56.7924C49.6975 56.6405 49.6543 56.4689 49.6557 56.2946C49.6557 56.1207 49.6977 55.9575 49.7811 55.8058C49.8686 55.6555 49.9922 55.5306 50.1403 55.443C50.2897 55.3532 50.4602 55.3066 50.6335 55.308C50.8119 55.308 50.9759 55.3528 51.1263 55.443C51.2767 55.5327 51.3963 55.654 51.4855 55.8058C51.5742 55.9575 51.6191 56.1207 51.6191 56.2951C51.6191 56.4691 51.5742 56.6322 51.4855 56.784C51.398 56.9343 51.2743 57.0591 51.1263 57.1467C50.9753 57.2313 50.8057 57.2749 50.6335 57.2734ZM65.3173 58.8091L58.7522 62.6389L52.2035 58.8091V51.1657L58.7517 47.3611L65.3178 51.1657V58.8091H65.3173ZM53.7068 57.9397L58.7517 60.8839L63.8058 57.9397V52.0514L58.7522 49.1072L53.7059 52.0514V57.9397H53.7068ZM54.3332 57.1556V52.7349H56.1124L56.1625 53.2746C56.541 52.8246 57.0699 52.5999 57.7498 52.5999C58.5569 52.5999 59.1249 52.8532 59.4537 53.3588C59.838 52.8532 60.4229 52.5999 61.2079 52.5999C61.6085 52.5999 61.9567 52.662 62.2517 52.7857C62.5526 52.9089 62.784 53.0947 62.9451 53.3426C63.1124 53.5841 63.1958 53.8847 63.1958 54.245V57.1556H61.3081V54.5066C61.3081 54.2982 61.244 54.1351 61.1158 54.0173C60.988 53.8936 60.812 53.8315 60.5897 53.8315C60.3221 53.8315 60.1076 53.9074 59.9465 54.0592C59.7903 54.2114 59.7127 54.4248 59.7127 54.7003V57.1556H57.8081V54.5066C57.8081 54.3041 57.7469 54.141 57.6244 54.0173C57.5019 53.8936 57.3351 53.8315 57.123 53.8315C56.8337 53.8315 56.6109 53.9103 56.4547 54.068C56.299 54.2198 56.2208 54.4308 56.2208 54.7003V57.1556H54.3337H54.3332ZM68.7875 57.3158C68.2474 57.3158 67.7518 57.2256 67.3005 57.0457C66.8497 56.8599 66.4904 56.5928 66.2228 56.2444C65.9557 55.8954 65.8222 55.4825 65.8222 55.0044C65.8222 54.515 65.9557 54.0927 66.2228 53.7388C66.4904 53.3845 66.8497 53.1174 67.3005 52.9375C67.7518 52.7517 68.2474 52.659 68.7875 52.659C69.3333 52.659 69.8318 52.7517 70.2826 52.9375C70.734 53.1228 71.0903 53.3928 71.3521 53.7472C71.6192 54.1015 71.7528 54.5209 71.7528 55.0039C71.7528 55.477 71.6163 55.89 71.3434 56.2444C71.0763 56.5928 70.7171 56.8604 70.2658 57.0457C69.815 57.2256 69.3222 57.3158 68.7875 57.3158ZM68.7793 56.1093C68.9794 56.1093 69.166 56.0586 69.3386 55.9575C69.5112 55.856 69.6476 55.721 69.7479 55.5524C69.8468 55.3828 69.8989 55.189 69.8989 54.9916C69.8989 54.7942 69.8468 54.6004 69.7479 54.4308C69.6497 54.2582 69.5084 54.1153 69.3386 54.0168C69.1686 53.9165 68.9755 53.8643 68.7793 53.8655C68.5787 53.8655 68.3921 53.9157 68.2195 54.0173C68.0532 54.1175 67.915 54.26 67.8183 54.4308C67.7236 54.6003 67.6747 54.7925 67.6766 54.9877C67.6766 55.1897 67.7238 55.378 67.8183 55.5524C67.9168 55.7231 68.0574 55.8643 68.2261 55.962C68.3947 56.0597 68.5854 56.1105 68.7793 56.1093ZM72.3044 57.1556V52.8019H74.0247L74.0917 53.4007C74.4702 52.9227 75.0218 52.6837 75.7456 52.6837C76.1188 52.6837 76.45 52.7458 76.7398 52.8695C77.0349 52.9877 77.2658 53.1676 77.4331 53.4091C77.6057 53.6457 77.6921 53.9325 77.6921 54.2696V57.1551H75.854V54.6156C75.854 54.4017 75.7875 54.2331 75.6539 54.1094C75.5204 53.9857 75.3362 53.9236 75.1024 53.9236C74.9187 53.9236 74.7542 53.9606 74.6096 54.0335C74.4649 54.1065 74.3507 54.2109 74.2673 54.3455C74.1838 54.4805 74.1419 54.6437 74.1419 54.8349V57.1551H72.3044V57.1556ZM84.0933 52.8019L81.9881 54.5569L84.277 57.1556H82.0383L81.1361 55.9827L80.7437 55.4598L80.3006 55.7974V57.1556H78.463V51.149H80.3006V53.3505L80.2842 54.2701L81.0441 53.5446L81.8796 52.8024H84.0933V52.8019Z" fill="black"/>
<path d="M86.6463 57.3326C85.0315 57.3326 84.1598 56.8378 84.032 55.8477L85.7774 55.8058C85.8165 55.9857 85.9057 56.1207 86.045 56.2104C86.1897 56.2952 86.4182 56.3371 86.7297 56.3371C87.0306 56.3371 87.2533 56.3036 87.398 56.2361C87.5431 56.1626 87.6154 56.0586 87.6154 55.9236C87.6169 55.8711 87.6035 55.8193 87.5768 55.7745C87.5501 55.7296 87.5113 55.6936 87.465 55.6708C87.3705 55.6087 87.2254 55.5693 87.0306 55.5525L86.045 55.4599C85.3989 55.3978 84.923 55.2578 84.6164 55.038C84.316 54.8133 84.1655 54.5067 84.1655 54.1184C84.1655 53.6571 84.3685 53.2973 84.775 53.0391C85.1872 52.7744 85.8054 52.6423 86.6299 52.6423C87.3927 52.6423 87.9828 52.7577 88.4004 52.9878C88.8237 53.213 89.0744 53.5477 89.1526 53.9917L87.4481 54.0341C87.4355 53.9616 87.4063 53.8932 87.3628 53.8345C87.3193 53.7758 87.2628 53.7285 87.1979 53.6965C87.0696 53.629 86.8579 53.5955 86.5629 53.5955C86.3232 53.5955 86.1342 53.6265 85.9949 53.6881C85.8613 53.7443 85.7943 53.8291 85.7943 53.9414C85.7943 54.0484 85.8444 54.1297 85.9447 54.1859C86.045 54.2366 86.2036 54.2731 86.4206 54.2958L87.3816 54.3796C88.6733 54.4929 89.3194 54.9478 89.3194 55.7467C89.3194 56.2922 89.0908 56.6944 88.6342 56.9531C88.1776 57.206 87.5151 57.3326 86.6463 57.3326Z" fill="black"/>
</g>
<defs>
<clipPath id="clip0_2603_739">
<rect width="70.3958" height="15.2778" fill="white" transform="translate(18.9236 47.3611)"/>
</clipPath>
</defs>
</svg>
