<svg width="109" height="109" viewBox="0 0 109 109" fill="none" xmlns="http://www.w3.org/2000/svg">
<g clip-path="url(#clip0_2603_740)">
<path d="M77.7331 50.7185H80.4919C81.4179 50.7185 82.1727 51.4799 82.1727 52.425C82.1727 53.3707 81.4179 54.1393 80.4919 54.1393H77.7331V50.7185ZM81.0526 55.5966C82.5258 55.3301 83.6511 54.0078 83.6511 52.425C83.6511 50.6496 82.2308 49.2009 80.4919 49.2009H76.2559V60.543H77.7331V55.6485H79.3207L82.3903 60.543H84.1461L81.0526 55.5966Z" fill="black"/>
<path d="M43.3676 56.4355H38.6707L41.014 51.3967L43.3676 56.4355ZM40.3794 49.2377L35.1211 60.543H36.761L37.9669 57.9505H44.0723L45.2751 60.543H46.917L41.6582 49.2377H40.3794Z" fill="black"/>
<path d="M54.5631 55.4965L51.6535 49.2377H50.0117L53.7372 57.2576L52.2069 60.543H53.8489L59.1074 49.2377H57.4688L54.5631 55.4965Z" fill="black"/>
<path d="M25.6994 49.232H24.2217V60.5557H30.9399V59.0496H25.6994V49.232Z" fill="black"/>
<path d="M64 60.5557H70.2614V59.0496H65.482V55.6489H70.2614V54.1397H65.482V50.7313H70.2614V49.2144H64V60.5557Z" fill="black"/>
</g>
<defs>
<clipPath id="clip0_2603_740">
<rect width="59.9248" height="11.3542" fill="white" transform="translate(24.2217 49.2012)"/>
</clipPath>
</defs>
</svg>
