<svg width="108" height="109" viewBox="0 0 108 109" fill="none" xmlns="http://www.w3.org/2000/svg">
<g clip-path="url(#clip0_2603_741)">
<path d="M54.4385 51.7711C55.7629 51.2865 57.0874 49.764 57.0874 48.274C57.1175 47.8721 57.0631 47.4684 56.9279 47.0896C56.7927 46.7109 56.5798 46.3659 56.3033 46.0776C56.0269 45.7894 55.6933 45.5645 55.3248 45.4181C54.9563 45.2717 54.5613 45.207 54.1664 45.2284C52.4344 45.2284 50.7024 46.1976 50.7024 48.1354C50.703 50.2136 52.8082 51.1478 54.4385 51.7711ZM54.0989 63.0179C55.9989 63.0179 57.4955 61.8065 57.4955 59.7994C57.4955 57.4114 55.4914 56.2698 53.5216 55.6122C51.8233 56.4428 50.4989 57.5481 50.4989 59.592C50.5125 60.0585 50.6166 60.5176 50.8053 60.9428C50.9939 61.3681 51.2634 61.751 51.5981 62.0695C51.9329 62.3881 52.3262 62.6359 52.7554 62.7986C53.1847 62.9614 53.6413 63.036 54.0989 63.0179ZM50.0913 53.6064C47.7139 52.5323 46.1517 50.5252 46.1517 47.9986C46.1517 43.6728 49.3779 41.6289 53.6901 41.6289C57.8675 41.6289 61.6374 43.3937 61.6374 47.4428C61.6116 48.6942 61.2241 49.9099 60.5233 50.9379C59.8225 51.9659 58.8396 52.7603 57.6978 53.2217V53.2561C60.8235 54.7442 62.249 56.8206 62.249 59.5889C62.249 64.468 58.785 66.6137 54.0977 66.6137C49.4827 66.6168 45.7441 64.5748 45.7441 59.6639C45.7441 56.9649 47.2383 55.0958 50.0913 53.677V53.6077" fill="black"/>
</g>
<defs>
<clipPath id="clip0_2603_741">
<rect width="16.5" height="24.9792" fill="white" transform="translate(45.75 41.6318)"/>
</clipPath>
</defs>
</svg>
