<svg width="109" height="109" viewBox="0 0 109 109" fill="none" xmlns="http://www.w3.org/2000/svg">
<path d="M36.8484 56.1525C37.6325 56.1525 38.0721 55.5586 38.0721 54.6885V48.6435H41.7926V54.6066C41.7926 57.6917 40.0164 59.7985 36.8484 59.7985C33.6803 59.7985 31.9041 57.6929 31.9041 54.6066V53.555C31.9041 52.6849 31.4645 52.091 30.6804 52.091C29.8962 52.091 29.4566 52.6849 29.4566 53.555V59.5993H25.7361V53.6363C25.7361 50.5512 27.5123 48.4443 30.6798 48.4443C33.8472 48.4443 35.6246 50.5512 35.6246 53.6369V54.6885C35.6246 55.5586 36.0642 56.1525 36.8484 56.1525Z" fill="black"/>
<path d="M54.7298 48.4443C53.4098 48.4443 52.3845 49.1476 51.7115 49.81C51.0871 48.9937 50.1349 48.4443 48.8434 48.4443C47.723 48.4443 46.9448 49.0364 46.4417 49.6456V48.6435H42.7211V59.5999H46.4417V53.5599C46.4417 52.5621 46.946 52.0904 47.6654 52.0904C48.3848 52.0904 48.8891 52.4435 48.8891 53.5599V59.5999H52.6097V53.5599C52.6097 52.5621 53.1134 52.0904 53.8334 52.0904C54.5534 52.0904 55.0571 52.4435 55.0571 53.5599V59.5999H58.7777V52.6659C58.7777 50.5554 57.2658 48.4456 54.731 48.4456H54.7298V48.4443Z" fill="black"/>
<path fill-rule="evenodd" clip-rule="evenodd" d="M64.5102 48.4443C65.7203 48.4443 66.625 48.9387 67.3005 49.6261V48.6435H71.021V59.5987H67.3005V58.6174C66.6256 59.3048 65.7203 59.7985 64.5102 59.7985C60.7552 59.7985 59.4394 56.6071 59.4394 54.1214C59.4394 51.6357 60.7552 48.4443 64.5102 48.4443ZM63.1522 54.122C63.1522 55.3184 63.8336 56.3456 65.2534 56.3456C66.6731 56.3456 67.3545 55.3184 67.3545 54.122C67.3545 52.9256 66.6731 51.8985 65.2534 51.8985C63.8336 51.8985 63.1522 52.9256 63.1522 54.122Z" fill="black"/>
<path d="M75.6724 49.642C76.3193 48.9851 77.1853 48.4444 78.2878 48.4443C81.0956 48.4445 82.507 50.7816 82.507 53.1193V59.5999H78.7864V53.9607C78.7864 52.5401 78.1449 52.091 77.2294 52.091C76.314 52.091 75.6724 52.6916 75.6724 53.9607V59.5999H71.9519V48.6435H75.6724V49.642Z" fill="black"/>
</svg>
