<svg width="109" height="109" viewBox="0 0 109 109" fill="none" xmlns="http://www.w3.org/2000/svg">
<g clip-path="url(#clip0_3103_237)">
<path d="M86.6932 54.6849L91.7288 61.8209H94.5363L89.4352 54.5932C91.4731 54.206 92.7622 52.5137 92.7622 50.4263C92.7622 48.0044 90.9662 46.1777 88.5857 46.1777H82.5547L83.8915 47.5735V60.4246L82.5547 61.8204H87.6392L86.3024 60.4246V54.6966L86.6932 54.6844V54.6849ZM86.3024 46.7559H87.1599C89.5351 46.7559 90.3283 48.2956 90.3283 50.4263C90.3283 52.5569 89.5374 54.1191 87.1599 54.1191H86.3024V46.7559Z" fill="black"/>
<path d="M57.4671 46.1787H52.29L53.5988 47.6315V60.367L52.29 61.8209H57.4431C61.5391 61.8209 65.0175 58.2886 65.0175 54.0214C65.0175 49.7542 61.5673 46.1787 57.4671 46.1787ZM56.9769 61.2427H56.0111V46.7558H56.9999C60.3972 46.7558 62.306 50.8528 62.306 54.1814C62.306 57.9915 59.8047 61.2422 56.9769 61.2422V61.2427Z" fill="black"/>
<path d="M19.2483 61.2103V47.573L20.5843 46.1772H15.5L16.8371 47.573V60.4252L15.5 61.821H24.6184L25.2472 56.4732L22.1309 61.2103H19.2483Z" fill="black"/>
<path d="M49.1307 47.6146V56.3932L42.1132 46.1772H39.0507L40.3883 48.1266V60.3842L39.0107 61.821H42.543L41.167 60.3842V49.2615L49.9068 61.9991V47.6146L51.2844 46.1772H47.7532L49.1307 47.6146Z" fill="black"/>
<path d="M29.9943 46.1758L30.8097 48.4206L26.7788 60.3134L25.334 61.8201H28.8834L27.5425 60.4211L29.0162 56.0787C29.477 56.6761 29.9362 56.9064 30.4658 56.9064C31.4135 56.9064 32.4615 56.1694 33.2572 56.1737C33.4023 56.1747 33.5393 56.2088 33.6663 56.2867L35.6759 61.8206H38.3452L32.6583 46.1763H29.9948L29.9943 46.1758ZM32.134 55.0622C31.206 55.0622 30.1954 55.7512 29.4124 55.7512C29.3201 55.7512 29.2231 55.7384 29.1388 55.7144L31.2252 49.5646L33.4572 55.7102C33.0338 55.2563 32.6284 55.0617 32.1346 55.0617L32.134 55.0622Z" fill="black"/>
<path d="M74.2931 46C69.9998 46 66.2676 49.4325 66.2676 53.9654C66.2676 58.4981 69.8419 62.0026 74.2811 62C78.6748 61.9979 82.2684 58.4235 82.2684 53.9856C82.2684 49.5477 78.6759 46 74.2931 46ZM75.8891 60.993C71.7945 60.9989 68.4073 55.9829 68.4041 52.0699C68.4019 49.4645 69.8606 47.0027 72.7282 47.0069C76.8207 47.0128 80.1276 51.9808 80.1334 55.9131C80.138 58.4997 78.7374 60.9894 75.8891 60.993Z" fill="black"/>
</g>
<defs>
<clipPath id="clip0_3103_237">
<rect width="80" height="16" fill="white" transform="translate(15 46)"/>
</clipPath>
</defs>
</svg>
