<svg width="109" height="109" viewBox="0 0 109 109" fill="none" xmlns="http://www.w3.org/2000/svg">
<path fill-rule="evenodd" clip-rule="evenodd" d="M66.4267 50.379C66.4267 50.379 66.4646 50.2325 66.4484 50.1158C66.4337 50.0016 66.363 49.958 66.363 49.958L73.2709 49.9602C73.2709 49.9602 73.1998 50.0016 73.1849 50.1185C73.1694 50.2325 73.207 50.381 73.207 50.381L76.2229 57.9818L76.3189 58.1435L76.4517 58.2742L70.9964 58.2844C70.9964 58.2844 71.08 58.0946 71.0714 58.0156C71.0628 57.9314 71.0357 57.8229 71.0357 57.8229L70.6814 56.755H68.3069L67.9186 57.8227C67.9186 57.8227 67.8818 57.832 67.8818 57.9141C67.8818 58.0741 67.9712 58.2091 67.9712 58.2091H63.572C63.572 58.2091 63.7234 58.1448 63.807 57.948C63.8753 57.7924 63.8621 57.8015 63.8621 57.8015L66.4267 50.379ZM69.4935 53.4873L68.8942 54.9374H70.0946L69.4935 53.4873Z" fill="black"/>
<path fill-rule="evenodd" clip-rule="evenodd" d="M61.02 53.0501L61.2512 53.0047L61.3928 52.9155L61.3887 55.2226L61.24 55.129L61.02 55.0824L58.203 55.0859V55.8422H61.8811L62.1402 55.7867L62.2676 55.6809L62.2761 58.2844L53.3658 58.2657L53.4474 58.1101L53.4829 57.8495V50.3753L53.4453 50.1158L53.3594 49.958L62.2402 49.976L62.2471 52.4806L62.1026 52.4146L61.8609 52.3963H58.203V53.0617L61.02 53.0501Z" fill="black"/>
<path fill-rule="evenodd" clip-rule="evenodd" d="M46.0477 58.2058C46.0477 58.2058 46.1511 58.11 46.165 58.0508C46.2037 57.8579 46.139 57.6706 46.139 57.6706L44.526 54.9522V54.9347L44.5332 57.7919L44.5791 58.0186L44.6667 58.1415H39.5673L39.6513 58.0186L39.6953 57.7756L39.6932 50.3349L39.6488 50.1194L39.5654 50.0072H44.6669L44.5813 50.1268L44.5374 50.3649L44.5343 53.0314L46.3821 50.4466C46.3821 50.4466 46.4203 50.3454 46.4203 50.1995C46.4203 50.1077 46.3363 49.958 46.3363 49.958L51.4134 49.9642L49.2042 53.323L51.8666 57.872L52.066 58.0354L52.2927 58.1413H46.0477V58.2058Z" fill="black"/>
<path fill-rule="evenodd" clip-rule="evenodd" d="M36.768 57.8756L36.8132 58.1308L36.8961 58.284L31.794 58.2693L31.8541 58.1135L31.8724 57.8534V50.3732L31.8517 50.153L31.792 50.0361H36.8981L36.8132 50.1563L36.77 50.3954L36.768 57.8756Z" fill="black"/>
</svg>
