<svg width="110" height="110" viewBox="0 0 110 110" fill="none" xmlns="http://www.w3.org/2000/svg">
<path fill-rule="evenodd" clip-rule="evenodd" d="M60.9551 61.9168C60.8411 61.7259 60.6592 61.591 60.4436 61.5369C59.4842 61.2962 58.6281 60.4759 57.846 59.6253C57.5146 59.2646 57.1025 58.8157 56.6745 58.4209L56.5915 58.3448L56.6976 58.3063C58.8314 57.5371 60.265 55.4958 60.265 53.2271C60.265 50.2811 57.8998 47.9736 54.8805 47.9736H51.8736C51.4145 47.9736 51.0409 48.347 51.0403 48.8058L51.04 48.8176C51.0458 49.2726 51.4175 49.6407 51.8736 49.6407H54.8805C56.9677 49.6407 58.6026 51.216 58.6026 53.2271C58.6026 55.2832 56.933 56.956 54.8805 56.956H51.8736C51.4139 56.956 51.04 57.3296 51.04 57.7893C51.04 58.2489 51.4139 58.6228 51.8736 58.6228H53.4917C54.664 58.6228 55.6157 59.6585 56.6234 60.755C57.5537 61.7671 58.5834 62.7861 60.0378 63.152C60.2532 63.2056 60.4768 63.1732 60.668 63.0589C60.8592 62.9449 60.9939 62.7633 61.048 62.5473C61.1024 62.3317 61.0694 62.1078 60.9551 61.9168ZM70.8724 55.298C70.8724 63.9002 63.8992 70.8734 55.2971 70.8734C46.6949 70.8734 39.7217 63.9002 39.7217 55.298C39.7217 46.6959 46.6949 39.7227 55.2971 39.7227C63.8992 39.7227 70.8724 46.6959 70.8724 55.298Z" fill="black"/>
</svg>
