<svg width="110" height="110" viewBox="0 0 110 110" fill="none" xmlns="http://www.w3.org/2000/svg">
<g clip-path="url(#clip0_2603_732)">
<path d="M64.9886 54.5755C64.7756 54.5161 64.6052 54.4566 64.5967 54.4481C64.5797 54.4227 62.7226 47.2577 62.7311 47.2407C62.7311 47.2323 63.2848 46.6889 63.9578 46.0268L65.2867 44.7364L65.3889 44.643L65.3975 49.6687C65.3975 53.6756 65.3975 54.6858 65.3889 54.6858C65.3719 54.6858 65.193 54.6349 64.9886 54.5755ZM68.8986 55.6621L65.9938 54.8556L65.9852 49.4649L65.9767 44.0657L67.016 43.047C67.5953 42.4952 68.0638 42.0283 68.0723 42.0283C68.0808 42.0283 69.7079 42.4783 71.6842 43.0216L75.2876 44.0233L76.2162 47.6312C76.7273 49.6177 77.1447 51.2392 77.1447 51.2477C77.1362 51.2647 71.812 56.4686 71.795 56.4686C71.795 56.4686 70.4916 56.1036 68.8986 55.6621ZM55.3795 51.4514L55.371 46.2305L61.5044 46.222V48.6669L59.8859 48.6754L58.2673 48.6839V50.1441H61.3341L61.3426 51.3241L61.3511 52.5041H58.2759V54.185H61.5129V55.4329L61.5215 56.6808L55.388 56.6893L55.3795 51.4514ZM48.292 51.4514L48.2835 46.2305L54.4169 46.222V48.6669H51.1628V50.1271H54.238V52.4871H51.1628V54.168H54.4169V56.6639L48.2835 56.6723L48.292 51.4514ZM43.3001 50.7553C43.5556 50.6874 43.743 50.5855 43.8964 50.4327C44.1178 50.195 44.2201 49.8724 44.186 49.4819C44.169 49.3206 44.1434 49.2103 44.0838 49.0829C43.939 48.7773 43.6919 48.6075 43.283 48.5311C43.1808 48.5141 43.0956 48.5056 42.8571 48.5141C42.6952 48.5141 42.5249 48.5226 42.4823 48.5311L42.3971 48.5396V50.7808L42.4482 50.7893C42.4823 50.7893 42.5163 50.7978 42.5419 50.7978H42.8741C43.1382 50.7893 43.1808 50.7893 43.3001 50.7553ZM39.5007 51.4429L39.4922 46.205L39.5348 46.1966C39.5859 46.1881 40.0033 46.1711 40.5656 46.1456C41.1789 46.1202 43.6238 46.1202 43.8623 46.1456C45.2082 46.273 46.0942 46.655 46.6394 47.3341C47.0738 47.8944 47.2868 48.6839 47.2442 49.5838C47.1931 50.611 46.6564 51.5363 45.8301 52.0372C45.7108 52.1136 45.4893 52.2155 45.4042 52.2494C45.3786 52.2579 45.353 52.2664 45.353 52.2749C45.353 52.2834 45.4127 52.3768 45.4893 52.4956C45.7279 52.8522 45.9068 53.1493 46.2986 53.8199L47.3294 55.5602C47.6872 56.163 47.9768 56.6554 47.9768 56.6639C47.9768 56.6723 47.1931 56.6723 46.2305 56.6808H44.4756L43.496 54.7707L42.5078 52.8607H42.3971V56.6808H39.5007V51.4429ZM32.8562 51.4684L32.8477 46.2475L38.8278 46.239V48.7094H35.744V50.3988H38.6574V52.7588H35.744V56.6808H32.8477L32.8562 51.4684ZM54.4765 67.8188C54.468 67.8103 54.468 65.4672 54.4595 62.5979L54.451 57.3854H57.3388L57.3473 67.8273H55.9077C55.1325 67.8273 54.4851 67.8273 54.4765 67.8188ZM39.5604 62.6233L39.5518 57.4024L45.6853 57.3939V59.8304H42.4482V61.3075H45.5234V63.6675H42.4482V65.3484H45.6853V67.8442L39.5518 67.8527L39.5604 62.6233ZM32.8647 62.6318L32.8562 57.4109H35.744L35.7525 65.2805H38.6318V67.8527L32.8647 67.8612V62.6318ZM48.6838 63.8797V59.8983H46.4179V57.4279L53.8376 57.4194V59.8898H51.5717L51.5802 67.8527H48.6924L48.6838 63.8797ZM62.3478 67.9122C61.1978 67.8358 60.2437 67.5047 59.5281 66.9274C59.3432 66.7758 59.1722 66.6082 59.017 66.4265C58.4207 65.7219 58.0714 64.7966 57.9607 63.6251C57.9351 63.3534 57.9351 62.5215 57.9692 62.2328C58.0544 61.333 58.2418 60.6368 58.574 59.9662C58.8296 59.4568 59.0936 59.0748 59.477 58.6928C59.8433 58.3278 60.1926 58.0731 60.6611 57.8354C61.2659 57.5298 61.8963 57.36 62.6885 57.2836C63.1145 57.2411 63.7619 57.2496 64.2815 57.309C64.6223 57.343 65.3123 57.4703 65.3378 57.5043C65.3463 57.5043 65.2782 58.0985 65.1845 58.8032C65.0482 59.8558 65.0141 60.0935 65.0056 60.0935C64.9971 60.0935 64.9034 60.0681 64.7926 60.0426C64.0685 59.8728 63.3104 59.8219 62.8419 59.9068C62.0837 60.0511 61.547 60.5519 61.2915 61.3245C61.2318 61.5197 61.1807 61.7235 61.1466 61.9697C61.1126 62.1989 61.1126 62.8356 61.1466 63.1072C61.2318 63.8458 61.4363 64.3467 61.8026 64.7117C62.203 65.1107 62.7652 65.2975 63.5319 65.272C63.9919 65.255 64.4774 65.1786 64.8523 65.0513C64.9204 65.0258 64.9886 65.0003 65.0056 65.0003C65.0312 65.0003 65.0397 65.0598 65.2015 66.2737L65.3719 67.5471C65.3719 67.5471 64.8182 67.632 64.1452 67.7254C62.9441 67.8952 62.9185 67.9037 62.7141 67.8952C62.6033 67.9206 62.4415 67.9122 62.3478 67.9122ZM67.016 67.8612C66.4453 67.8018 65.9767 67.7509 65.9682 67.7509C65.9597 67.7424 66.113 65.1701 66.113 65.1616C66.113 65.1616 66.1727 65.1701 66.2493 65.1956C66.9308 65.3993 67.7827 65.5267 68.3875 65.5097C68.5323 65.5097 68.6771 65.4927 68.7283 65.4842C69.1457 65.3993 69.4183 65.1871 69.4779 64.89C69.4864 64.8475 69.4864 64.7711 69.4864 64.7032C69.4694 64.3806 69.2734 64.1514 68.8305 63.9477C68.6601 63.8713 68.5494 63.8203 68.1234 63.6675C67.1353 63.311 66.7349 63.0818 66.3345 62.6912C66.1727 62.5299 66.0704 62.4026 65.9597 62.2158C65.6275 61.6556 65.4912 60.7896 65.6275 60.0001C65.8745 58.523 67.0927 57.5467 68.9753 57.309C69.316 57.2666 69.5205 57.2581 69.9294 57.2581C70.5172 57.2581 71.0964 57.3005 71.7013 57.3939L71.8376 57.4109L71.829 57.5128C71.829 57.5637 71.7864 58.1155 71.7524 58.7352L71.6757 59.8643C71.6757 59.8643 71.565 59.8473 71.4372 59.8134C70.892 59.6775 70.4575 59.6181 69.9805 59.6096C69.5546 59.5927 69.2905 59.6351 69.0605 59.7455C68.9327 59.8049 68.7964 59.9237 68.7453 60.0256C68.6431 60.2124 68.6516 60.4671 68.7623 60.6453C68.8134 60.7217 68.9497 60.8576 69.0605 60.9255C69.1968 61.0189 69.5375 61.1717 69.9294 61.333C70.449 61.5367 70.6364 61.6216 70.9005 61.7489C71.4883 62.0461 71.8631 62.3517 72.1442 62.7761C72.3657 63.0902 72.485 63.4298 72.5531 63.8797C72.5787 64.0665 72.5872 64.5759 72.5616 64.7796C72.4168 65.9342 71.7439 66.868 70.662 67.4283C70.0401 67.7424 69.3586 67.9206 68.5408 67.9801C68.2257 67.9801 68.0979 67.9716 67.016 67.8612Z" fill="black"/>
</g>
<defs>
<clipPath id="clip0_2603_732">
<rect width="44.3056" height="25.9722" fill="white" transform="translate(32.8477 42.0137)"/>
</clipPath>
</defs>
</svg>
